ply
format ascii 1.0
comment Created by Open3D
element vertex 849
property double x
property double y
property double z
property uchar red
property uchar green
property uchar blue
end_header
0.0557868 0.0463602 -0.0306131 54 37 33
0.0564688 0.0465913 -0.020348 98 81 67
0.06118 0.0620835 -0.0173169 0 0 0
0.051061 0.0539148 -0.0201792 0 0 0
0.0569338 0.0583851 -0.0309412 29 0 0
0.0534772 0.0581813 -0.0188442 77 51 42
0.0548979 0.0438902 -0.032143 61 41 36
0.0510274 0.0571381 -0.0189084 75 43 33
0.0597659 0.0488915 -0.0207325 0 0 0
0.0501881 0.0468683 -0.0344038 60 34 25
0.0435994 0.0432552 -0.0279488 184 138 137
0.0542482 0.0521337 -0.0268298 98 66 54
0.0501346 0.0670172 -0.0147414 0 0 0
0.0588514 0.0517306 -0.0293422 138 98 86
0.0557631 0.0640574 -0.0308084 0 0 0
0.0603902 0.0509855 -0.0201037 0 0 0
0.0528578 0.0442891 -0.0228111 80 63 54
0.0530897 0.0591043 -0.019161 105 105 103
0.0526633 0.0614869 -0.0171953 110 78 66
0.0476702 0.0506136 -0.0159223 46 32 27
0.0532282 0.0589606 -0.0223613 0 0 0
0.0460972 0.0646458 -0.0278487 63 64 63
0.0455957 0.0495766 -0.0262597 136 101 81
0.0592375 0.0599546 -0.0285117 0 0 0
0.0512393 0.0628692 -0.0173671 28 13 11
0.0461021 0.0510672 -0.0291244 95 84 70
0.0538558 0.0582194 -0.0332764 29 21 17
0.0529217 0.0554229 -0.0251298 225 168 141
0.0554008 0.0638623 -0.019633 28 15 10
0.0549989 0.0555822 -0.0209585 21 0 0
0.0497685 0.0574264 -0.0221593 62 44 37
0.048098 0.0561015 -0.0170158 20 0 0
0.0534924 0.058169 -0.0255967 78 51 42
0.0502033 0.0589249 -0.0293869 29 23 20
0.0533187 0.061751 -0.0148996 92 96 111
0.0523253 0.0527308 -0.0277278 159 110 86
0.0536509 0.0596013 -0.017048 71 61 50
0.0546496 0.0537523 -0.0253706 126 89 75
0.055056 0.0551887 -0.0266937 94 60 46
0.0541641 0.0573227 -0.0275986 72 44 35
0.0486839 0.0467123 -0.0314435 60 37 30
0.0546747 0.0540668 -0.0243345 132 83 73
0.0613136 0.0475481 -0.0252055 249 177 175
0.0508872 0.0573011 -0.0233119 215 136 102
0.054628 0.0612962 -0.0304346 0 0 0
0.0573682 0.0614905 -0.0164821 0 0 0
0.0498241 0.0603896 -0.0276416 74 56 45
0.0590914 0.0548927 -0.0185262 255 209 178
0.0544599 0.0634215 -0.0227595 102 73 53
0.0508473 0.0625083 -0.020106 89 65 76
0.055697 0.0675025 -0.011664 0 0 0
0.0513382 0.0606075 -0.0122322 0 0 0
0.0536596 0.0674919 -0.00542689 181 165 182
0.0490961 0.0627177 -0.0185869 71 45 38
0.0516619 0.0574065 -0.0215788 95 61 51
0.0577994 0.0634258 -0.0292104 55 44 36
0.0441089 0.0550366 -0.0253084 62 38 29
0.0584317 0.0511787 -0.0213477 3 0 0
0.0531602 0.0617019 -0.0152347 137 111 104
0.0554944 0.0637187 -0.0203648 72 55 46
0.0559768 0.0647547 -0.0154435 255 0 0
0.0611955 0.0645318 -0.0270388 99 89 89
0.0623758 0.0512483 -0.0293191 134 92 77
0.0580647 0.063847 -0.0294663 0 0 0
0.0563663 0.0669034 -0.0157269 0 0 0
0.0581786 0.0688573 -0.0164038 0 0 0
0.0426597 0.0616454 -0.027577 18 0 13
0.0531886 0.0644245 -0.0137523 104 96 73
0.0608658 0.0493685 -0.022472 99 83 68
0.0493188 0.0680753 -0.0120096 74 52 0
0.0623408 0.066677 -0.0213263 0 0 0
0.046482 0.0500402 -0.0149119 51 44 24
0.0484462 0.0675146 -0.0276946 14 0 0
0.0556006 0.0528634 -0.0277095 90 58 46
0.050049 0.0635342 -0.0332896 23 0 0
0.0584137 0.0460405 -0.0290565 72 48 42
0.0451081 0.05107 -0.0292263 81 70 65
0.0565173 0.0584968 -0.0310858 230 166 131
0.0478336 0.0518503 -0.0281866 149 107 89
0.050433 0.0429061 -0.0269324 67 50 47
0.0465691 0.0593296 -0.0298126 49 22 13
0.0536641 0.0462558 -0.0340775 116 87 76
0.0462695 0.0622921 -0.0166635 59 0 0
0.0561869 0.0592604 -0.0161161 53 0 0
0.053007 0.0481858 -0.0349962 60 42 37
0.0595244 0.0623362 -0.0262282 255 255 254
0.0491899 0.063942 -0.0277571 46 28 22
0.0539296 0.0545401 -0.0223343 147 128 91
0.0574167 0.063149 -0.019181 0 0 0
0.0496668 0.0704787 -0.0177523 0 0 0
0.045559 0.059448 -0.0291421 36 21 9
0.0545203 0.0563228 -0.0354704 40 28 18
0.0574466 0.0685019 -0.032369 35 21 13
0.0588787 0.0589607 -0.0171864 0 0 0
0.0468872 0.0530081 -0.0285853 171 120 103
0.0497673 0.067773 -0.0181854 54 29 26
0.0564872 0.0489507 -0.0355966 62 45 41
0.0462048 0.0538851 -0.00889666 0 0 0
0.0518422 0.0650364 -0.0146778 0 0 0
0.0456666 0.0459306 -0.0253759 18 9 12
0.0596283 0.0464951 -0.0242884 129 101 84
0.045927 0.0540054 -0.0260735 89 59 46
0.0523631 0.0606275 -0.0345344 36 23 21
0.0616792 0.0606637 -0.036109 231 149 137
0.0475452 0.0484766 -0.0287817 115 89 74
0.0547408 0.0547995 -0.0340964 43 25 20
0.0631638 0.0488832 -0.0264431 162 128 110
0.0468522 0.0544356 -0.0330727 61 59 65
0.0504839 0.0671113 -0.0275765 55 23 22
0.0587688 0.0575234 -0.0233419 172 132 109
0.0542759 0.0556016 -0.0260872 81 51 41
0.0461501 0.0631822 -0.0226348 74 61 0
0.057039 0.0535312 -0.033574 0 0 0
0.0566426 0.0616546 -0.033262 24 21 17
0.0478425 0.0551792 -0.0310083 0 0 0
0.0502625 0.0664701 -0.0215814 45 28 29
0.059346 0.0608715 -0.03013 16 0 0
0.0543175 0.047723 -0.0201965 131 93 80
0.0544177 0.0538392 -0.0338908 0 0 0
0.0461027 0.0744561 -0.0190753 0 0 0
0.0511855 0.0571867 -0.0196865 122 110 82
0.0480237 0.0641896 -0.0275389 97 61 50
0.0573228 0.0642354 -0.027066 216 166 130
0.0462344 0.0581291 -0.0291312 28 15 12
0.0547581 0.065483 -0.0244084 73 52 41
0.0547428 0.0452414 -0.0313157 72 49 41
0.0530117 0.0598148 -0.0163625 17 15 19
0.0554288 0.0646398 -0.0303779 0 0 0
0.0536033 0.0569899 -0.0359716 43 24 17
0.0433683 0.0520992 -0.0216032 35 28 23
0.045884 0.0521032 -0.0331299 47 31 27
0.0464234 0.0523615 -0.0321541 81 56 49
0.0529354 0.0565651 -0.0175391 87 50 40
0.0405312 0.076409 -0.014906 0 0 0
0.0526974 0.0662406 -0.0284556 255 219 194
0.0570922 0.0585993 -0.0348978 22 6 5
0.0450681 0.0493025 -0.0319132 76 52 42
0.0619336 0.0769912 -0.018676 0 0 0
0.0566493 0.0601214 -0.0213163 152 142 127
0.052168 0.0675661 -0.00317751 171 135 123
0.0567708 0.0644621 -0.013923 129 94 58
0.0603766 0.0758481 0.00550029 130 101 86
0.0607996 0.0691701 -0.0165832 138 84 72
0.0513344 0.064604 -0.0145442 140 187 162
0.0556113 0.0475859 -0.0142266 228 187 178
0.0511746 0.0762062 -0.0126756 151 194 185
0.052818 0.0655558 -0.0305743 161 137 131
0.0493629 0.0587249 -0.00855759 147 107 123
0.0541205 0.0664783 -0.0211432 121 95 79
0.0466493 0.0686546 -0.0156947 118 132 123
0.063867 0.0653836 -0.00651267 255 216 191
0.0679815 0.0568587 -0.016091 255 255 255
0.0505427 0.0713362 -0.00735676 83 199 202
0.0557166 0.0656116 -0.0304416 164 139 129
0.0460686 0.0528953 -0.0137123 119 116 128
0.050659 0.0696395 -0.0113408 111 255 255
0.060969 0.0644536 -0.0262308 255 255 245
0.0650727 0.0559458 -0.0099786 142 127 138
0.0589742 0.0658742 -0.0280258 186 133 138
0.0542945 0.0458936 -0.0338641 80 60 54
0.0544779 0.0477762 -0.0238078 200 160 141
0.0566881 0.0616174 -0.0176891 114 86 73
0.0570571 0.0698933 -0.0239124 123 91 0
0.0533276 0.0460894 -0.0342438 133 98 83
0.0490459 0.0456774 -0.0264285 48 27 23
0.051344 0.0480042 -0.0230691 182 139 119
0.0608546 0.053305 -0.0227308 255 255 248
0.0603939 0.0473069 -0.0278644 49 24 19
0.0463667 0.0514389 -0.0309916 67 38 31
0.0568381 0.0478076 -0.0324295 54 38 30
0.0541647 0.0484481 -0.0342664 80 54 44
0.0568088 0.0553609 -0.0230061 158 121 106
0.0610986 0.0587391 -0.0243956 0 0 0
0.0486463 0.0459317 -0.0310585 61 41 38
0.0617781 0.0549807 -0.0260004 242 131 108
0.0527462 0.0568917 -0.0352028 63 45 37
0.0519174 0.0442874 -0.0262858 137 105 88
0.0562692 0.0617031 -0.0260749 145 103 85
0.0516597 0.043722 -0.0273849 89 53 59
0.0532554 0.0568832 -0.0202449 50 39 29
0.0581848 0.0600519 -0.0203548 0 0 0
0.0566776 0.0556511 -0.0330687 58 39 28
0.0621795 0.0671295 -0.0212967 0 0 0
0.0504634 0.0517053 -0.0215972 0 0 0
0.0558331 0.0589328 -0.0335279 0 0 0
0.0500002 0.052786 -0.0301963 78 50 43
0.0545723 0.0622966 -0.0174801 77 47 38
0.054466 0.0556024 -0.0354008 0 0 0
0.0547887 0.043392 -0.0326871 65 43 36
0.0557227 0.0593243 -0.030495 0 0 0
0.0544143 0.0476046 -0.0345424 79 57 48
0.0449383 0.0501645 -0.0299916 49 33 28
0.0562465 0.0536414 -0.0319624 69 29 23
0.0579789 0.0484776 -0.0235996 118 39 0
0.0543634 0.0565427 -0.0303815 105 70 55
0.0494637 0.0540787 -0.0340732 48 27 21
0.0606414 0.0574279 -0.0305635 154 77 82
0.0555265 0.0576545 -0.02246 8 0 0
0.0590899 0.0631645 -0.0255036 255 196 170
0.0528043 0.0645706 -0.0311152 34 16 0
0.0537063 0.0472537 -0.0349713 122 94 82
0.0566887 0.0618573 -0.0201138 23 8 4
0.0602874 0.058927 -0.030476 119 0 0
0.0502345 0.0578552 -0.0171345 52 0 0
0.0452531 0.0591794 -0.0265189 33 24 17
0.0593233 0.0536854 -0.0278635 255 255 255
0.0471323 0.0558839 -0.0334527 52 33 27
0.0482437 0.0467042 -0.0250971 45 28 24
0.0514907 0.0530245 -0.0332448 129 94 80
0.0544003 0.0462389 -0.0335427 79 60 53
0.0533188 0.0467419 -0.0342987 109 84 72
0.0491384 0.0665908 -0.00955582 0 0 0
0.0493783 0.0568577 -0.0347675 43 32 25
0.0440314 0.0700704 -0.00902282 0 0 0
0.0529938 0.0606339 -0.0161161 73 50 40
0.054246 0.0464135 -0.0335315 85 66 59
0.0567119 0.0452818 -0.0304681 65 44 36
0.0542 0.0462352 -0.0336182 126 91 79
0.0590348 0.0578399 -0.0238974 37 0 0
0.0560775 0.0485934 -0.0348724 64 41 0
0.0542143 0.0457804 -0.0341532 78 59 51
0.0492751 0.0484623 -0.0231698 47 32 25
0.05854 0.0713113 -0.0181774 0 0 117
0.0500041 0.0563948 -0.0340905 55 35 29
0.0565181 0.0645696 -0.0295317 0 0 0
0.0542854 0.0483107 -0.0338494 68 43 35
0.0579737 0.0815858 -0.0234366 0 0 0
0.0529785 0.0454747 -0.0329878 125 96 85
0.0549522 0.0479508 -0.0222856 255 255 229
0.0535847 0.0471327 -0.0338278 134 97 83
0.0481723 0.0486287 -0.0240276 54 37 30
0.052916 0.0588619 -0.0182214 66 56 49
0.0555719 0.0452566 -0.0315579 57 35 29
0.0565888 0.0607877 -0.0294901 0 0 0
0.0534211 0.0670873 -0.0268136 153 125 102
0.044899 0.0500323 -0.0308721 86 64 54
0.0543435 0.055403 -0.0381777 78 52 43
0.0475639 0.0551488 -0.0327848 61 43 36
0.0482852 0.0448882 -0.0245388 104 73 61
0.0555559 0.0452869 -0.0355737 103 71 63
0.0549437 0.0572637 -0.0379949 30 16 12
0.0424618 0.0614826 -0.0274845 23 0 0
0.0539787 0.0456893 -0.0347999 136 98 85
0.0545131 0.0470395 -0.0345882 77 59 53
0.0452492 0.0468988 -0.0249462 92 63 54
0.057619 0.0513511 -0.0369205 53 32 23
0.0505103 0.0450716 -0.020789 75 50 42
0.0547366 0.0477372 -0.0277873 90 62 51
0.0557666 0.050873 -0.0286208 154 115 99
0.0535246 0.0556217 -0.0381824 57 39 31
0.043086 0.0596906 -0.0275534 45 34 30
0.0511803 0.0571831 -0.03842 44 22 15
0.0490238 0.0520482 -0.0355559 52 32 26
0.0544033 0.0462437 -0.0335321 79 60 53
0.0548056 0.0558438 -0.0386251 45 30 28
0.0582914 0.0474991 -0.033388 80 58 49
0.0530988 0.0470951 -0.0343298 110 90 81
0.0495481 0.0661846 -0.0260828 160 124 106
0.0591039 0.0456983 -0.0333788 81 64 57
0.0556518 0.0448002 -0.0286196 76 48 40
0.0567149 0.0580391 -0.0344078 18 8 13
0.0472239 0.0604328 -0.0298365 38 26 27
0.0545936 0.0475419 -0.0339578 65 45 38
0.0544266 0.0463219 -0.0328274 71 50 43
0.0460995 0.0507004 -0.0326992 139 117 121
0.0533866 0.0519928 -0.027642 141 75 70
0.0496332 0.0444553 -0.024521 94 66 53
0.0563941 0.0450273 -0.0310938 64 46 37
0.0524511 0.0453631 -0.031129 108 81 70
0.047868 0.0486436 -0.0235295 54 35 27
0.053298 0.0471036 -0.0340884 83 64 56
0.0454519 0.0498683 -0.0266102 106 87 76
0.0436955 0.0503735 -0.0210285 50 27 18
0.0567642 0.0453153 -0.0355702 129 90 74
0.0537709 0.045026 -0.0310502 113 84 73
0.0518302 0.0475466 -0.0344325 101 78 69
0.0542576 0.0470171 -0.033329 75 58 51
0.0554727 0.0639671 -0.0263831 101 72 60
0.05496 0.0568737 -0.0302009 19 0 0
0.0521246 0.0486355 -0.0218544 79 47 41
0.0467644 0.0490537 -0.0351224 139 117 121
0.0498218 0.0447781 -0.0267028 98 70 57
0.0531754 0.0460202 -0.0323772 53 30 25
0.0498023 0.0482702 -0.0289613 31 15 12
0.0549022 0.0451762 -0.0339484 118 90 78
0.0440472 0.0483329 -0.0255459 58 41 33
0.0527065 0.0465864 -0.0337892 83 64 56
0.0540127 0.04498 -0.0344358 143 103 88
0.0535499 0.0449956 -0.0314986 113 84 73
0.0538495 0.0464015 -0.0334273 110 81 70
0.0544384 0.0469844 -0.0338249 75 58 51
0.0548953 0.0439062 -0.0321345 61 41 36
0.0559097 0.060984 -0.0299444 0 0 0
0.0489718 0.0479513 -0.0210863 53 32 26
0.0452503 0.0460157 -0.0274982 70 39 30
0.0464488 0.049357 -0.028796 70 52 40
0.0439436 0.0527133 -0.0297765 35 22 22
0.0473927 0.0430579 -0.0276588 92 65 52
0.0612101 0.0523179 -0.0212577 255 255 231
0.0582236 0.0478337 -0.0226042 85 46 33
0.0552654 0.046387 -0.0359841 73 57 50
0.0550956 0.0440202 -0.0272343 85 66 56
0.0580681 0.0459454 -0.0288989 107 73 59
0.0495013 0.0450318 -0.0251098 30 15 15
0.0546227 0.0463465 -0.0342674 112 87 90
0.0454723 0.0495899 -0.0291364 48 34 29
0.0547812 0.0513485 -0.0379619 61 38 28
0.048646 0.045932 -0.0310573 61 41 38
0.0608918 0.0436566 -0.03384 131 95 80
0.0475511 0.0425289 -0.0261052 103 79 62
0.047572 0.0469863 -0.0344156 56 34 27
0.0450824 0.0532104 -0.0347527 89 68 60
0.0500735 0.0430666 -0.0334388 53 23 15
0.0541344 0.0493625 -0.0352601 145 104 86
0.0471344 0.0577605 -0.0290182 94 61 48
0.046806 0.0471594 -0.0289265 100 71 56
0.0557669 0.048615 -0.0349659 55 39 0
0.0555253 0.0504844 -0.0378957 66 44 41
0.0577492 0.0553906 -0.0277235 197 158 129
0.0586429 0.0559845 -0.0263164 116 85 71
0.0540567 0.0464774 -0.0345873 93 74 66
0.0572329 0.0440423 -0.0335709 71 50 43
0.0485767 0.0542552 -0.0317076 132 91 74
0.0580145 0.0454955 -0.0294754 104 68 54
0.0630419 0.047947 -0.0301563 105 82 70
0.0611997 0.0482777 -0.0249423 46 23 18
0.0551132 0.0487974 -0.0267977 113 84 70
0.0563074 0.0582321 -0.0347996 16 10 18
0.0551554 0.0460189 -0.0340759 82 64 56
0.0553218 0.0445271 -0.0341439 78 57 50
0.0592384 0.050599 -0.0303073 66 50 37
0.0500766 0.0450717 -0.0261454 86 60 50
0.0538495 0.0464015 -0.0334273 110 81 70
0.0543927 0.0456692 -0.033004 80 62 54
0.0541327 0.0450331 -0.033636 142 100 87
0.0567988 0.056183 -0.0282937 188 147 126
0.0529152 0.0477997 -0.0346051 143 102 88
0.0480616 0.0527921 -0.0203722 120 86 74
0.0399664 0.0570586 -0.0252812 31 20 16
0.0533067 0.0594364 -0.0335331 192 114 0
0.0540219 0.0563721 -0.0357186 42 20 8
0.0445328 0.0520317 -0.0226926 37 19 13
0.0563465 0.0462398 -0.0336546 60 40 34
0.0610018 0.0489151 -0.0300111 52 35 31
0.0530757 0.053623 -0.0187284 130 97 79
0.0521787 0.0635701 -0.0321271 95 59 46
0.0438858 0.0610561 -0.0283584 42 20 2
0.0526253 0.0477922 -0.0335567 112 83 70
0.0534848 0.0470564 -0.0335674 140 100 86
0.0533116 0.0478101 -0.0332887 126 94 81
0.0541912 0.0456228 -0.0329884 81 61 52
0.0542202 0.0653786 -0.030773 0 0 0
0.0477549 0.0473384 -0.0263327 64 42 38
0.0533425 0.0520033 -0.0193788 103 78 67
0.0542375 0.0454834 -0.0344666 108 85 75
0.0437995 0.0608596 -0.0275428 31 13 7
0.0538331 0.0467828 -0.0336241 75 57 49
0.0528569 0.0466263 -0.0323792 89 67 59
0.0480026 0.0591811 -0.0319573 104 74 60
0.0552189 0.0509323 -0.0206287 75 59 51
0.0541524 0.0588404 -0.0257249 58 39 32
0.0476423 0.0471182 -0.0204355 45 29 23
0.0564218 0.0583238 -0.0326538 30 0 0
0.0504889 0.0500056 -0.0209926 53 40 38
0.0558795 0.0513898 -0.02433 75 45 37
0.0557104 0.0652341 -0.0205931 45 0 0
0.0487272 0.0483695 -0.0218339 52 30 24
0.0557684 0.0459474 -0.0333907 65 48 40
0.0482373 0.0453973 -0.0231777 31 21 18
0.0541628 0.0470089 -0.035215 103 82 72
0.0546014 0.04575 -0.0340678 121 86 74
0.0537809 0.0478493 -0.0347249 124 91 78
0.0495706 0.0458113 -0.0239927 32 0 0
0.0576842 0.0510786 -0.032109 122 90 77
0.0441268 0.0616756 -0.0253153 51 25 22
0.0486256 0.0481688 -0.0192853 43 25 21
0.0470641 0.052501 -0.0269884 59 41 36
0.0542263 0.0459037 -0.0346635 113 85 73
0.0468395 0.0516874 -0.0312284 106 75 63
0.0538223 0.0477125 -0.0334643 110 86 74
0.054284 0.0455906 -0.0336208 88 72 63
0.0520547 0.0611956 -0.0241938 39 0 0
0.0545692 0.0457669 -0.0347626 122 97 85
0.0534799 0.0481753 -0.0344521 133 97 82
0.0536936 0.048617 -0.0340541 80 62 54
0.062662 0.0564082 -0.0154142 255 232 198
0.0503913 0.0652081 -0.0246396 0 0 0
0.0524031 0.0516926 -0.0361789 140 100 83
0.053654 0.0482838 -0.0341399 138 98 85
0.051432 0.0603015 -0.0228632 55 4 10
0.0556703 0.0599367 -0.0305478 0 0 0
0.0473969 0.0602363 -0.0292768 5 56 68
0.0495124 0.0611356 -0.020414 27 13 8
0.0551519 0.0449922 -0.0291049 57 36 31
0.0549311 0.0484501 -0.0187174 137 106 87
0.0552416 0.0459353 -0.0328004 69 46 39
0.0536055 0.0542305 -0.0295472 109 77 62
0.050567 0.0492381 -0.0221466 134 81 64
0.0576714 0.0638296 -0.0293637 35 0 0
0.0419193 0.0605656 -0.0285829 47 26 4
0.0535016 0.0474793 -0.0330998 94 70 61
0.0558444 0.0555595 -0.0346665 185 128 137
0.054266 0.0538351 -0.0356256 69 49 45
0.0541409 0.0446251 -0.0335873 126 94 81
0.0508512 0.0653864 -0.0304627 70 52 48
0.0521759 0.0445525 -0.0242558 111 77 66
0.0577064 0.0505926 -0.0338714 114 87 79
0.0542398 0.0460858 -0.0354843 116 86 73
0.0450504 0.0581874 -0.0286618 32 12 6
0.0539974 0.0462195 -0.035107 83 66 59
0.0528408 0.0466579 -0.0332664 89 67 59
0.0491282 0.0449653 -0.0317124 62 34 27
0.04908 0.0442175 -0.0247798 35 21 15
0.054014 0.0617636 -0.0303719 11 0 0
0.052968 0.048516 -0.0270301 144 91 72
0.0472652 0.0491276 -0.0275766 117 91 72
0.0572437 0.0655383 -0.0318569 12 36 0
0.056391 0.0454185 -0.0330902 58 37 31
0.0595131 0.042428 -0.0205527 15 7 7
0.0531487 0.0460337 -0.0330588 87 70 63
0.0535705 0.0462822 -0.0349475 117 90 79
0.0552248 0.0455933 -0.0321891 121 86 74
0.0537856 0.0456514 -0.0315343 124 91 78
0.0546469 0.0470794 -0.034528 85 72 53
0.0447315 0.0582022 -0.0287011 41 20 6
0.055592 0.0465147 -0.0330367 83 64 57
0.056409 0.0475285 -0.0222085 0 0 0
0.0442565 0.0506612 -0.0235162 39 21 10
0.0546694 0.0459705 -0.0331604 76 57 48
0.0449918 0.0518626 -0.0281681 175 145 126
0.0538297 0.0463332 -0.0329703 110 86 74
0.053833 0.0663314 -0.0308706 110 79 74
0.0525148 0.044861 -0.0339612 122 97 85
0.0546633 0.0464709 -0.0327434 133 97 82
0.0557868 0.0463602 -0.0306131 54 37 33
0.0581157 0.048053 -0.0281955 39 31 28
0.0594262 0.0479799 -0.0262461 56 30 24
0.0477949 0.0493149 -0.0201681 34 17 11
0.0572348 0.0543189 -0.0172141 107 80 68
0.054222 0.0587155 -0.018302 53 30 25
0.0485431 0.0461217 -0.0263283 55 26 24
0.0479849 0.0476512 -0.0279142 80 55 45
0.053387 0.0609168 -0.0139302 0 0 0
0.0447066 0.0503619 -0.0298187 94 66 51
0.0593254 0.0444443 -0.0301681 87 63 55
0.0477719 0.0448532 -0.0276806 107 81 68
0.0443622 0.0561156 -0.032088 54 44 46
0.0587769 0.0609272 -0.0275748 38 20 0
0.055776 0.0563347 -0.0368256 73 50 39
0.0536453 0.0628983 -0.0153072 0 0 0
0.0431368 0.0528766 -0.0318531 86 54 41
0.0591963 0.0608532 -0.0327711 100 56 37
0.0542945 0.0458936 -0.0338641 80 60 54
0.0560519 0.0444037 -0.0268014 91 66 55
0.0533345 0.0461029 -0.0342257 133 98 83
0.0471373 0.0447274 -0.0344877 60 35 29
0.0439642 0.0533077 -0.0349142 120 92 75
0.0539143 0.047404 -0.0333109 147 108 94
0.0481868 0.0466847 -0.0243884 35 22 19
0.0433533 0.0527781 -0.0312671 57 31 24
0.0534126 0.0625086 -0.0208048 61 24 31
0.0573403 0.045246 -0.0352559 75 51 42
0.0487922 0.0443324 -0.0270904 127 98 78
0.0525924 0.0516622 -0.0268085 119 73 60
0.046426 0.0471778 -0.0332332 61 35 27
0.0593636 0.0495191 -0.033739 122 90 79
0.0451448 0.0532324 -0.0299095 63 40 32
0.0552908 0.0441614 -0.03249 66 44 38
0.054211 0.0531689 -0.0388084 75 47 35
0.0450255 0.0518609 -0.0293029 56 37 27
0.0482522 0.0511518 -0.0338473 26 22 19
0.0409984 0.0594922 -0.0245265 69 0 30
0.0427907 0.0504492 -0.0317874 93 64 52
0.0533194 0.0467424 -0.0342968 109 84 72
0.0542487 0.0464174 -0.0335247 85 66 59
0.056077 0.0485956 -0.0348688 64 41 0
0.057579 0.0461478 -0.0340043 102 78 69
0.0554963 0.0448309 -0.0262974 89 58 50
0.0510313 0.0507442 -0.0320899 49 32 27
0.0555719 0.0452566 -0.0315579 57 35 29
0.0541019 0.0467069 -0.0335343 135 97 84
0.0545131 0.0470395 -0.0345882 77 59 53
0.0626767 0.0500042 -0.0201521 34 13 7
0.0502107 0.0461366 -0.022946 114 82 69
0.0489364 0.0471131 -0.0227248 69 50 45
0.0530991 0.0470952 -0.0343293 110 90 81
0.0544266 0.0463219 -0.0328274 71 50 43
0.0496592 0.0437492 -0.0257392 90 62 51
0.0448213 0.0462943 -0.0282744 68 46 35
0.0463477 0.0473282 -0.0267493 45 34 33
0.0473927 0.0430579 -0.0276588 92 65 52
0.0561733 0.054118 -0.0353004 91 52 34
0.0498777 0.0531232 -0.0328724 60 31 27
0.0525094 0.0591304 -0.024928 210 140 113
0.0552652 0.0463874 -0.035983 73 57 50
0.0550956 0.0440202 -0.0272343 85 66 56
0.0580681 0.0459454 -0.0288989 107 73 59
0.0546245 0.0463541 -0.0342605 111 87 90
0.0458367 0.0584058 -0.0326637 154 120 103
0.0475511 0.0425289 -0.0261052 103 79 62
0.0505453 0.0429603 -0.0248787 64 40 34
0.045465 0.0499081 -0.0300081 37 23 18
0.0565375 0.0566531 -0.0350388 59 49 41
0.0553854 0.0519098 -0.0394214 132 93 72
0.0620671 0.056794 -0.0297643 152 63 19
0.046806 0.0471594 -0.0289265 100 71 56
0.0557669 0.0486152 -0.0349654 55 39 0
0.0551142 0.0446241 -0.0262528 94 62 52
0.0553989 0.0578826 -0.0384501 47 40 34
0.0533117 0.0452781 -0.0341944 95 74 64
0.0572329 0.0440423 -0.0335709 71 50 43
0.0580145 0.0454955 -0.0294754 104 68 54
0.0562129 0.0416278 -0.0286711 56 42 31
0.0563074 0.0582321 -0.0347996 16 10 18
0.0553218 0.0445271 -0.0341439 78 57 50
0.0500766 0.0450717 -0.0261454 86 60 50
0.0541327 0.0450334 -0.0336359 142 100 87
0.0560631 0.0546146 -0.0343108 73 54 49
0.0529152 0.0477997 -0.0346051 143 102 88
0.0490786 0.0664846 -0.028767 32 27 0
0.0518049 0.0621345 -0.0310078 0 0 0
0.0541649 0.0564764 -0.0348842 118 96 109
0.0563433 0.0462522 -0.0336352 60 40 34
0.0526253 0.0477922 -0.0335567 112 83 70
0.0536832 0.0470971 -0.0333754 138 99 84
0.0582058 0.0456785 -0.031403 83 64 55
0.0458324 0.0618025 -0.0279099 32 25 27
0.0487465 0.0481757 -0.0210235 45 28 21
0.0430677 0.0522402 -0.0223175 112 95 84
0.0542375 0.0454834 -0.0344666 108 85 75
0.0516343 0.0461746 -0.0357206 83 65 57
0.0451247 0.04949 -0.0257327 68 50 42
0.0454899 0.0504851 -0.0275252 57 35 30
0.0572807 0.0608675 -0.0315581 13 0 0
0.0487272 0.0483695 -0.0218339 52 30 24
0.0557683 0.0459476 -0.0333905 65 48 40
0.0480945 0.0466286 -0.02519 14 6 6
0.0560569 0.0459739 -0.0279822 127 94 77
0.0541628 0.0470089 -0.035215 103 82 72
0.0478961 0.0491803 -0.0335505 70 38 30
0.0542255 0.0459077 -0.0346598 113 85 73
0.0542731 0.0456662 -0.033555 88 71 63
0.0510348 0.0615063 -0.0155784 33 0 0
0.0431515 0.0577487 -0.0278408 88 64 59
0.0532669 0.0526218 -0.0394154 130 92 75
0.0564837 0.0603026 -0.0340441 44 24 16
0.0623995 0.0559637 -0.0209209 154 87 0
0.0606035 0.0533668 -0.0331333 58 37 32
0.0530627 0.0470714 -0.0347188 106 86 76
0.0479183 0.0483573 -0.0209424 54 35 25
0.0542398 0.0460858 -0.0354843 116 86 73
0.0539977 0.0462202 -0.0351056 83 66 59
0.0480948 0.047843 -0.0235021 22 14 10
0.0478989 0.0479838 -0.0266302 24 12 7
0.0586155 0.0620736 -0.030959 41 25 21
0.0445051 0.0570291 -0.0289567 89 59 49
0.0476099 0.0495893 -0.0229439 55 40 32
0.05639 0.0454235 -0.0330848 58 37 31
0.0531487 0.0460337 -0.0330587 87 70 63
0.053801 0.0459688 -0.0348514 134 101 89
0.0535705 0.0462822 -0.0349475 117 90 79
0.0546477 0.0470838 -0.034518 85 72 53
0.0555931 0.0465528 -0.0329962 83 64 57
0.044367 0.0472465 -0.0240842 34 17 5
0.0546694 0.0459705 -0.0331604 76 57 48
0.0621069 0.0799668 -0.0205406 0 0 0
0.0582656 0.05461 -0.0245652 242 197 172
0.0515548 0.0589497 -0.0352949 46 30 26
0.0581853 0.0672487 -0.0258168 233 171 143
0.0561852 0.0546978 -0.0346059 40 24 26
0.0477581 0.0665609 -0.028394 65 62 50
0.0405889 0.0590667 -0.0101877 125 81 81
0.04612 0.055089 -0.0185712 43 8 0
0.0523638 0.0462375 -0.0104455 54 0 25
0.0503822 0.0516456 -0.0201376 109 83 69
0.0490836 0.0496053 -0.0336562 111 92 90
0.0581537 0.0647051 -0.0251937 138 91 74
0.051736 0.059087 -0.0165903 61 22 15
0.0642212 0.0436052 -0.0230131 98 65 52
0.0570275 0.0472125 -0.0302336 106 81 70
0.0441793 0.0548409 -0.0288708 45 30 24
0.0461629 0.0502723 -0.0366083 45 28 25
0.0456495 0.0466384 -0.0253005 44 20 12
0.0643718 0.0513191 -0.0261245 60 40 39
0.0589152 0.0813584 -0.0206597 0 0 0
0.0535931 0.0588265 -0.0319137 0 0 0
0.0694634 0.0470434 -0.0276556 97 66 51
0.0532678 0.0546051 -0.03503 41 22 0
0.0545299 0.0617533 -0.020418 44 26 22
0.0594398 0.0589659 -0.0347764 110 79 70
0.0618085 0.0541226 -0.0293357 116 91 84
0.047213 0.0455907 -0.0225665 88 59 50
0.0500752 0.051865 -0.0190957 179 141 118
0.0429192 0.0505882 -0.0346516 105 86 84
0.0555266 0.0561507 -0.0182124 0 132 166
0.0575027 0.0600388 -0.0318614 19 0 0
0.0418172 0.0475428 -0.0264201 70 40 31
0.040321 0.0602339 -0.016642 255 201 186
0.065043 0.0476712 -0.0228358 87 64 66
0.0472562 0.0493986 -0.0330731 45 28 25
0.0432607 0.0499484 -0.0226512 28 22 24
0.0460364 0.0559584 -0.0289415 33 11 0
0.0471195 0.070776 -0.0272306 0 0 7
0.0509911 0.0472692 -0.0208622 179 136 119
0.0521197 0.0729762 -0.0272028 196 154 143
0.0548708 0.0668169 -0.0302287 214 157 142
0.0640139 0.055774 -0.0172997 255 224 255
0.0560589 0.0484235 -0.00984869 255 255 255
0.0565498 0.0463647 -0.0393321 88 70 61
0.0444385 0.0513837 -0.0210479 43 36 34
0.0580746 0.0549206 -0.025364 142 98 81
0.061427 0.0477934 -0.0292049 36 21 15
0.0620179 0.049661 -0.0210209 35 19 14
0.0629791 0.0496792 -0.029607 43 31 26
0.058985 0.0514302 -0.0333189 94 70 60
0.0547123 0.0715437 -0.0252972 104 80 68
0.0502872 0.0482044 -0.0118706 0 0 0
0.0535732 0.0680566 -0.0188057 62 36 24
0.0398627 0.0613023 -0.0271313 18 0 14
0.0452183 0.039115 -0.0255094 70 38 30
0.0459029 0.0405113 -0.0254928 80 55 44
0.0654896 0.0598972 -0.0171232 0 0 0
0.0383177 0.0506208 -0.0354713 91 62 48
0.045859 0.0402829 -0.0280499 109 82 67
0.0400786 0.0546972 -0.0369554 55 53 58
0.0638625 0.0405412 -0.0193978 129 86 70
0.0574039 0.0539576 -0.0390381 0 0 0
0.0508088 0.0540712 -0.0219419 105 75 60
0.0634427 0.0532676 -0.0245824 255 255 255
0.0392941 0.0522447 -0.0362995 74 48 41
0.0594634 0.0571908 -0.0331462 101 72 59
0.0629453 0.0804216 -0.0313564 0 0 0
0.0585542 0.0429691 -0.0271085 104 77 62
0.0451261 0.0382928 -0.0234809 41 21 17
0.062424 0.0468066 -0.0230166 219 164 131
0.0579317 0.0459218 -0.0370306 111 79 70
0.0403528 0.0540326 -0.0323821 64 40 32
0.0541647 0.0484481 -0.0342664 80 54 44
0.0610301 0.0457929 -0.0238961 98 71 57
0.0462158 0.0388536 -0.0270654 128 98 78
0.0570739 0.0628453 -0.0184653 152 130 152
0.0495064 0.0419747 -0.02466 88 59 50
0.0544212 0.0699911 -0.0220204 54 43 29
0.0552474 0.0578698 -0.033405 92 64 54
0.0588059 0.0410622 -0.0336891 67 43 36
0.05675 0.0569121 -0.0396835 41 25 22
0.0530992 0.0533518 -0.0370055 87 58 51
0.0562139 0.0550094 -0.0404191 46 30 28
0.0602387 0.0433569 -0.0241717 101 68 54
0.0638558 0.0483932 -0.0279307 114 91 75
0.0602082 0.0469019 -0.031117 129 89 74
0.0546856 0.0573213 -0.0408646 43 31 28
0.0596985 0.0683883 -0.0336023 24 11 7
0.0611094 0.0544564 -0.00922837 0 0 110
0.0545476 0.0573399 -0.0382143 56 38 32
0.0588046 0.0471881 -0.0358339 53 31 28
0.0608401 0.0780134 -0.0318943 0 0 0
0.0529785 0.0454747 -0.0329878 125 96 85
0.057843 0.0450784 -0.0263995 104 72 60
0.0537933 0.0512764 -0.00888373 152 167 154
0.0577229 0.0532015 -0.0364216 131 88 74
0.0366252 0.0572028 -0.0177399 53 36 30
0.0523828 0.0490935 -0.0369207 71 44 32
0.0591854 0.0547129 -0.0358414 107 78 67
0.0545942 0.047543 -0.0339564 65 45 38
0.0454983 0.0561418 -0.0293894 248 218 206
0.0587503 0.0580089 -0.0390169 45 30 0
0.049736 0.0443366 -0.0246815 100 70 58
0.0569442 0.0530708 -0.0355519 111 75 62
0.0639329 0.0459327 -0.0258479 110 88 82
0.0480551 0.041376 -0.0253533 35 21 21
0.0624264 0.0498025 -0.0375903 122 102 87
0.0623003 0.0502447 -0.0308639 97 62 52
0.0386128 0.0494305 -0.0371362 71 49 40
0.0578327 0.0528307 -0.0337796 54 35 31
0.0541344 0.0493625 -0.0352601 145 104 86
0.0545357 0.0434764 -0.0251324 106 68 57
0.0540571 0.0464831 -0.0345757 93 74 66
0.0479078 0.0545649 -0.0241013 146 110 94
0.0590133 0.0413686 -0.0273141 83 71 52
0.0551553 0.0460194 -0.0340753 82 64 56
0.0478187 0.056047 -0.0373447 70 51 43
0.0593172 0.0454768 -0.023072 173 134 114
0.0385325 0.0564754 -0.0248264 34 24 21
0.0521292 0.0605857 -0.0357932 49 36 0
0.0550172 0.0570919 -0.0429458 36 19 14
0.0616302 0.0548787 -0.0318159 51 34 29
0.0541912 0.0456228 -0.0329884 81 61 52
0.0566463 0.0664659 -0.0386202 22 9 11
0.0457847 0.041106 -0.0262803 49 31 23
0.0496527 0.0571549 -0.0353043 71 50 43
0.0538331 0.0467828 -0.0336241 75 57 49
0.0386881 0.0549767 -0.0317248 79 61 53
0.0541596 0.0613684 -0.0343153 29 24 24
0.065846 0.0520223 -0.0213714 36 21 17
0.0620487 0.0538693 -0.0154744 194 153 123
0.0611154 0.0468642 -0.0278562 51 33 27
0.0501016 0.0577427 -0.0440214 97 62 54
0.0529743 0.0563367 -0.0169674 96 85 61
0.0485912 0.0609195 -0.0266486 130 93 66
0.0524031 0.0516926 -0.0361789 140 100 83
0.0568283 0.0592591 -0.0173088 72 45 38
0.0399237 0.0605336 -0.0338127 37 19 14
0.0552416 0.0459353 -0.0328004 69 46 39
0.0657102 0.0547497 -0.0236912 255 217 227
0.062876 0.0437903 -0.0248477 52 34 26
0.0478085 0.0449985 -0.0221019 52 34 28
0.0610481 0.0492689 -0.0201846 61 40 32
0.0500891 0.0435338 -0.0219593 69 51 44
0.0459697 0.0425201 -0.0252174 27 11 5
0.0536575 0.0457693 -0.0219399 102 67 62
0.0627955 0.0461778 -0.0254582 93 62 50
0.0631471 0.054981 -0.0239057 125 82 67
0.0446207 0.0386248 -0.0277259 107 76 62
0.044811 0.0564369 -0.034826 83 51 40
0.0470531 0.0426151 -0.0214607 38 21 16
0.0450802 0.0396465 -0.026285 45 16 12
0.0479849 0.0476512 -0.0279142 80 55 45
0.0443622 0.0561156 -0.032088 54 44 46
0.0622999 0.0628363 -0.0303984 31 16 0
0.0431368 0.0528766 -0.0318531 86 54 41
0.047965 0.0400441 -0.0220799 60 39 32
0.0540035 0.0473757 -0.0332198 147 108 94
0.0461886 0.0445757 -0.0242052 27 13 10
0.0487922 0.0443324 -0.0270904 127 98 78
0.051957 0.0598624 -0.0351663 137 87 69
0.0552908 0.0441614 -0.03249 66 44 38
0.0611353 0.0528857 -0.0349702 86 57 48
0.0600895 0.0574884 -0.0302226 114 83 73
0.0629725 0.061343 -0.0184714 126 158 176
0.0462257 0.0403976 -0.0302363 93 67 59
0.0484814 0.0462553 -0.0221637 105 77 68
0.0463477 0.0473282 -0.0267493 45 34 33
0.0561733 0.054118 -0.0353004 91 52 34
0.0626805 0.0584691 -0.0313518 59 0 0
0.0553854 0.0519098 -0.0394214 132 93 72
0.0620417 0.041555 -0.0304488 96 76 66
0.0560631 0.0546146 -0.0343108 73 54 49
0.0504594 0.0676871 -0.0313905 28 18 0
0.0566373 0.060301 -0.0368307 44 28 22
0.0582058 0.0456785 -0.031403 83 64 55
0.0487465 0.0481757 -0.0210235 45 28 21
0.0516343 0.0461746 -0.0357206 83 65 57
0.0474599 0.0456668 -0.0234451 14 6 6
0.0625317 0.0494323 -0.0214437 54 35 29
0.0532669 0.0526218 -0.0394154 130 92 75
0.0530767 0.0470728 -0.0346876 106 86 75
0.0479183 0.0483573 -0.0209424 54 35 25
0.0474508 0.0447837 -0.0220515 31 20 15
0.0478989 0.0479838 -0.0266302 24 12 7
0.0613928 0.0553097 -0.0330379 82 64 57
0.0620618 0.0456608 -0.026678 78 62 54
0.053801 0.0459688 -0.0348514 134 101 89
0.0462193 0.044271 -0.0195285 39 23 17
0.0508636 0.0426873 -0.0191462 46 33 26
0.0617229 0.0422405 -0.0331818 112 87 76
0.0441793 0.0548409 -0.0288708 45 30 24
0.0391391 0.057303 -0.0323955 41 16 6
0.062792 0.0551198 -0.0200243 255 255 255
0.0548121 0.0561416 -0.0424329 49 31 33
0.0648688 0.0546025 -0.0362175 95 61 49
0.0343413 0.058883 -0.0307311 103 66 52
0.0439211 0.0444903 -0.0145052 45 29 21
0.0585175 0.0611414 -0.0320292 45 36 37
0.0416096 0.0524599 -0.028159 101 68 54
0.0409049 0.0652139 -0.0341576 10 0 0
0.0547925 0.054897 -0.0412528 104 77 70
0.0541978 0.0591161 -0.0178385 106 94 74
0.0554898 0.0536325 -0.0191264 109 80 67
0.0440102 0.0568179 -0.0321715 58 38 32
0.0468562 0.0619791 -0.0333251 33 17 12
0.0547096 0.0541383 -0.0234654 34 9 0
0.0623243 0.0579507 -0.0151689 220 146 148
0.0463874 0.0484214 -0.0248384 53 40 33
0.0411419 0.0408127 -0.0267413 30 22 20
0.0462891 0.0642575 -0.0285485 76 61 34
0.0703315 0.0472052 -0.0284366 96 61 49
0.0500081 0.065064 -0.03202 37 29 21
0.0612524 0.0600875 -0.0275919 0 0 0
0.0621635 0.0470133 -0.0252444 99 81 71
0.0616624 0.0529027 -0.0362147 96 66 55
0.044739 0.0511456 -0.0207299 37 23 17
0.0488878 0.0562487 -0.022946 234 173 130
0.054403 0.0545795 -0.0268915 89 57 45
0.0582115 0.0381734 -0.0356972 117 87 76
0.0540665 0.0479119 -0.0342072 87 66 57
0.0474574 0.0465598 -0.0188392 43 32 28
0.0539831 0.0481538 -0.0335309 130 96 83
0.0432409 0.0534202 -0.0156387 44 51 46
0.0605259 0.0492156 -0.0295883 60 45 40
0.0442568 0.0394456 -0.021564 40 21 23
0.0610781 0.05756 -0.0310199 112 65 47
0.0487277 0.0458643 -0.0250452 22 16 16
0.0544012 0.0482012 -0.0342669 93 71 62
0.047227 0.05247 -0.0267614 155 121 100
0.0430539 0.0533052 -0.0354712 100 71 64
0.0637084 0.056036 -0.0298281 112 78 65
0.0481494 0.0447325 -0.0290677 63 40 33
0.0626344 0.0527607 -0.029466 119 87 73
0.0565748 0.072995 -0.023172 95 71 0
0.0468506 0.0568255 -0.0357421 73 45 35
0.0474311 0.0439034 -0.022875 35 19 18
0.0526961 0.045687 -0.0333012 107 86 74
0.0528945 0.0480093 -0.0351011 130 97 84
0.0448321 0.0594973 -0.0275161 47 35 31
0.0619959 0.0551253 -0.0308984 48 116 99
0.0510991 0.0498268 -0.0131763 255 241 221
0.0416985 0.0660034 -0.0348465 3 0 0
0.0543143 0.0527825 -0.0356893 111 83 75
0.0514839 0.0585748 -0.0358708 90 56 43
0.063822 0.0602877 -0.0291113 74 58 53
0.0631044 0.0466887 -0.0247952 88 70 61
0.0461309 0.0538442 -0.0286832 46 0 0
0.051054 0.0603083 -0.0269938 85 56 44
0.0652857 0.0507041 -0.0377582 42 28 22
0.0457307 0.0432013 -0.0176026 42 21 19
0.0591279 0.0452831 -0.0261774 106 76 63
0.0653814 0.0476833 -0.0277258 42 31 36
0.0490921 0.0578228 -0.0386629 60 41 35
0.0472943 0.0652031 -0.0276097 78 48 34
0.0648047 0.0488578 -0.0276052 20 7 3
0.0527794 0.06225 -0.0332738 46 37 33
0.0538531 0.0650899 -0.0241837 163 121 99
0.0452368 0.054606 -0.0251701 19 0 0
0.039992 0.0669397 -0.0278209 165 118 97
0.0583706 0.0505601 -0.0323593 74 56 50
0.0585966 0.0541368 -0.040275 112 81 70
0.0554418 0.0456834 -0.0329551 87 66 57
0.0460527 0.0606346 -0.0208298 133 97 83
0.0538587 0.0471077 -0.033939 130 96 83
0.0563694 0.0333997 -0.00783039 121 80 66
0.0570865 0.0471333 -0.0326365 78 61 54
0.0435721 0.0455307 -0.024996 28 9 11
0.0640595 0.0539626 -0.0264372 125 92 87
0.0470969 0.0360947 -0.0220346 21 14 14
0.0536794 0.0476461 -0.0344549 93 71 62
0.0526399 0.0537444 -0.0231751 134 95 76
0.0520406 0.0532011 -0.035018 123 89 75
0.0665271 0.0568746 -0.0312433 100 71 52
0.0605689 0.0485418 -0.0265086 58 40 33
0.0436371 0.0492562 -0.0165543 34 21 27
0.0667601 0.0545072 -0.021682 255 206 0
0.0456672 0.0616846 -0.028861 62 50 42
0.0460697 0.0446814 -0.0224194 19 4 2
0.0530657 0.0470479 -0.0334968 107 86 74
0.054025 0.0452725 -0.0330948 130 97 84
0.0429179 0.0521399 -0.0272327 47 35 30
0.0521334 0.0519001 -0.0279021 87 59 49
0.0492428 0.0402691 -0.0224033 45 33 28
