ply
format ascii 1.0
comment Created by Open3D
element vertex 1092
property double x
property double y
property double z
property uchar red
property uchar green
property uchar blue
end_header
0.0251669 0.0442287 0.000164155 216 82 76
0.0331212 0.0289118 0.0549287 216 82 76
0.0466114 0.0404947 -0.0507723 0 0 0
0.0348209 0.048923 0.0175121 197 78 72
0.0352091 0.0333959 0.067062 213 80 74
0.0322987 0.0572785 0.0592376 195 78 72
0.0439627 0.0566943 0.00461237 200 94 88
0.0468025 0.0318076 -0.0550961 0 0 0
0.0303064 0.0716023 0.058363 194 85 79
0.0499954 0.0387682 -0.0448977 0 0 0
0.0382692 0.0447972 0.00721584 197 77 71
0.023958 0.0296475 -0.0325701 220 86 79
0.0248782 0.0516677 -0.0282734 217 82 76
0.033361 0.0273504 -0.0211781 216 83 77
0.0327692 0.058332 -0.0257866 213 104 98
0.0382339 0.00172999 0.011395 226 80 74
0.052056 0.0460749 -0.0249833 0 0 0
0.0322221 0.0689215 0.072297 195 85 79
0.0362952 0.0406746 0.0654778 203 78 72
0.0364461 0.0395208 -0.0206058 215 81 75
0.0330875 0.0542213 -0.0285451 209 92 86
0.0341469 0.0395787 -0.0201463 216 82 76
0.0497332 0.0212902 -0.0412906 0 0 0
0.0470233 0.0290235 -0.0647305 0 0 0
0.033142 0.00737566 0.00812352 217 83 77
0.0351487 0.060519 0.0122962 196 86 80
0.0433241 0.0424474 -0.0112464 195 80 75
0.0527186 0.0523821 -0.0157769 0 0 0
0.0500717 0.0320871 -0.0248417 216 78 72
0.0422511 0.0359152 -0.00562443 210 79 73
0.0380315 0.0511431 -0.0138798 197 86 80
0.0534963 0.0210193 -0.0402203 0 0 0
0.035191 0.0540987 -0.0231505 209 91 85
0.0363217 0.0393316 -0.0204475 215 82 75
0.0433953 0.0357202 -0.0064078 206 78 72
0.0519966 0.0450599 -0.0269051 0 0 0
0.036939 0.0421923 -0.0193447 212 78 73
0.0351588 0.0494879 -0.0194605 197 82 77
0.0383519 0.0476364 -0.0157505 196 83 77
0.0222374 0.0318969 -0.0195473 219 84 78
0.0226003 0.0254562 -0.0293959 220 86 80
0.0426031 0.0504625 -0.0233623 223 109 102
0.0405941 0.0622093 -0.0171789 0 0 0
0.0554377 0.0333057 -0.0351584 0 0 0
0.00964934 0.0274761 -0.0584213 0 0 0
0.0328272 0.0526671 0.0779803 197 76 70
0.0512062 0.0264536 -0.0417003 0 0 0
0.0338876 0.0532083 -0.0314461 214 92 86
0.0275136 0.0425 -0.0226409 216 82 76
0.0480432 0.0490189 -0.0261012 0 0 0
0.0359645 0.0261074 0.0515388 216 82 76
0.0402103 0.0435786 -0.0723225 0 0 0
0.031535 0.0563233 -0.0281137 209 90 84
0.0394434 0.0517154 -0.0263153 216 103 96
0.0415656 0.0332916 -0.0226236 216 82 76
0.0318081 0.0537508 -0.0228377 198 86 81
0.0316186 0.0539108 -0.0334892 204 90 84
0.0510104 0.0175887 -0.0194596 0 0 0
0.0238101 0.0233957 0.00514508 216 83 77
0.0328625 0.0581262 -0.0271659 213 107 100
0.0479178 0.0491761 -0.0171915 0 0 0
0.0476213 0.0569493 -0.0164388 0 0 0
0.0220649 0.0249621 -0.0283255 220 86 79
0.0249414 0.0477184 -0.0616735 0 0 0
0.0302696 0.0263826 -0.0246608 216 83 77
0.034181 0.0290934 -0.0170502 216 83 77
0.0339349 0.0533791 -0.0322154 218 92 86
0.0360935 0.0424926 -0.0208003 214 80 74
0.039477 0.0527462 -0.0345772 0 0 0
0.0428886 0.0522535 -0.0261781 0 0 0
0.0515546 0.0132399 0.0113075 210 82 76
0.0471652 0.0533795 -0.0166716 0 0 0
0.0382078 0.0415836 -0.0198928 208 77 72
0.051491 0.0485305 -0.0278978 0 0 0
0.0239873 0.060047 0.00741056 201 80 75
0.0359414 0.0554715 -0.0370508 0 0 0
0.0314597 0.0270504 -0.0371248 216 84 78
0.0350345 0.0171976 -0.0400438 236 85 79
0.0440153 0.0537536 -0.0177697 0 0 0
0.0392676 0.0616931 -0.0159869 0 0 0
0.0488827 0.0514811 -0.0170494 0 0 0
0.0513704 0.0476458 -0.0242065 0 0 0
0.0264821 0.0344147 -0.0359052 221 85 79
0.0345821 0.0551654 -0.0324155 224 110 103
0.0490272 0.038062 -0.0400635 0 0 0
0.0274672 0.0305502 -0.0355292 221 86 79
0.0295092 0.0239202 -0.0338825 219 85 79
0.0263831 0.0129387 -0.059392 0 0 0
0.0441221 0.0226404 -0.0566867 0 0 0
0.0522238 0.0461843 -0.0119625 222 100 93
0.0385076 0.0578378 -0.0182368 222 109 102
0.0538343 0.0302845 -0.0437639 0 0 0
0.0240525 0.0225471 -0.0207153 218 85 79
0.0198923 0.0526083 -0.0645318 0 0 0
0.0495558 0.0469846 -0.0664178 0 0 0
0.0309529 0.070819 0.0596692 194 85 79
0.0494237 0.0467204 -0.0168781 222 101 93
0.0579765 0.0216503 -0.014457 0 0 0
0.0239236 0.0232263 -0.0211866 219 85 79
0.0238183 0.0300675 -0.032408 220 86 79
0.0289719 0.0304136 -0.0391129 221 86 80
0.0451015 0.0476868 -0.0213081 196 90 84
0.0598643 0.0312121 -0.0210508 0 0 0
0.0457099 0.0156607 -0.023794 225 102 96
0.0242324 0.0288396 -0.0331815 220 86 79
0.0481243 0.0200019 -0.0312788 0 0 0
0.0340663 0.0249084 -0.0365316 219 84 78
0.0266626 0.0456417 -0.023608 217 82 76
0.0316251 0.029894 -0.0357917 216 83 77
0.0492329 0.0692097 -0.00899808 0 0 0
0.0556023 0.0447127 -0.0345446 0 0 0
0.041498 0.0539799 -0.0196533 223 109 102
0.0424513 0.0525933 -0.0192266 223 109 102
0.0504425 0.0466431 -0.0255716 0 0 0
0.0267583 0.0465041 -0.0585579 0 0 0
0.0258605 0.0389693 -0.0669585 0 0 0
0.0362441 0.0424024 -0.0748097 0 0 0
0.0216568 0.0479817 -0.0653739 0 0 0
0.0249864 0.0423217 -0.061255 0 0 0
0.0231327 0.0398006 -0.0683816 0 0 0
0.0332174 0.0515401 -0.0510476 0 0 0
0.0209495 0.0436242 -0.0669135 0 0 0
0.036306 0.0443544 -0.0714128 0 0 0
0.0507068 0.024474 -0.0194203 224 102 96
0.0210656 0.0269117 -0.0286831 219 85 79
0.0243026 0.0300098 -0.0309322 221 86 80
0.0385323 0.0483339 -0.0193178 194 84 79
0.0546566 0.0439464 -0.0171025 0 0 0
0.0240378 0.0293693 -0.0315426 221 86 80
0.0361867 0.0569883 -0.0356965 0 0 0
0.0451834 0.0553917 -0.0150759 0 0 0
0.0550837 0.0429978 -0.0282828 0 0 0
0.0417175 0.0184964 -0.0292344 207 92 86
0.0552552 0.023639 -0.018129 0 0 0
0.0332544 0.0561378 -0.0207162 208 91 85
0.0267576 0.0447652 -0.0365014 218 83 77
0.0235712 0.0292242 -0.0315429 221 86 80
0.0312071 0.0290102 -0.0353591 216 83 77
0.0270702 0.0168549 -0.0568381 0 0 0
0.0256468 0.0331718 -0.0344485 221 86 79
0.0299703 0.0483968 -0.0218506 215 80 74
0.0563736 0.0443373 -0.0344364 0 0 0
0.0375735 0.0492729 -0.0193341 195 84 79
0.0484078 0.0189601 -0.0318759 0 0 0
0.0511687 0.0429834 -0.0333928 0 0 0
0.0502794 0.0559651 -0.0108279 0 0 0
0.0395394 0.0328867 -0.0794994 0 0 0
0.0582287 0.0439934 -0.0767066 0 0 0
0.0512957 0.0434358 -0.0238274 0 0 0
0.0492626 0.0243117 -0.036168 0 0 0
0.0462431 0.0236136 -0.033122 224 108 102
0.0188951 0.00827675 -0.0508866 0 0 0
0.0372816 0.0433329 -0.0643037 255 84 77
0.0141105 0.0357382 -0.0681569 0 0 0
0.0500382 0.0169745 -0.0440492 0 0 0
0.0330103 0.0559609 -0.0204668 205 90 84
0.0459328 0.051541 -0.0205831 0 0 0
0.0498195 0.0286227 -0.0254528 224 102 96
0.0549804 0.0393757 -0.0145582 184 86 80
0.0457718 0.0228783 -0.0262888 223 99 92
0.0345073 0.0332097 -0.0484558 216 83 77
0.0392784 0.0303988 -0.0540809 254 71 65
0.0402178 0.0164124 -0.0375015 225 102 96
0.0437441 0.0425232 -0.067627 0 0 0
0.0512847 0.0406489 -0.0443725 0 0 0
0.0409105 0.0346638 -0.0275711 216 82 76
0.0312945 0.0283749 -0.0302182 216 83 77
0.0475841 0.0175221 -0.0391718 0 0 0
0.0303906 0.0522248 -0.024309 203 85 79
0.0482675 0.0198193 -0.0393333 0 0 0
0.0495143 0.04384 -0.0210875 183 83 77
0.0437294 0.0484026 -0.0147216 212 93 87
0.0454251 0.0398041 -0.0131886 195 78 73
0.059154 0.0289291 -0.0165144 0 0 0
0.0474519 0.0189421 -0.0307376 0 0 0
0.0488551 0.0180933 -0.0303918 0 0 0
0.0535992 0.0445415 -0.0182645 0 0 0
0.0314607 0.0434056 -0.0801781 0 0 0
0.0217759 0.0287075 -0.0269421 221 86 80
0.0501053 0.0221738 -0.0454128 0 0 0
0.0286839 0.0278294 -0.0338859 218 85 78
0.0434191 0.023119 -0.0271079 222 77 71
0.0346505 0.0514449 -0.0309126 204 89 83
0.0231065 0.0282476 -0.0266205 221 86 80
0.0364538 0.0221104 -0.0346877 225 86 80
0.0464765 0.0198132 -0.0317043 0 0 0
0.0248437 0.0217437 -0.0229723 219 85 79
0.0313563 0.0347665 -0.0286499 216 83 77
0.0306313 0.0510346 -0.0227488 205 82 76
0.0413646 0.0204499 -0.0358994 223 103 96
0.0526741 0.0430801 -0.020112 210 88 80
0.0354524 0.0563261 -0.01893 214 92 86
0.0475341 0.0484304 -0.0208234 0 0 0
0.052952 0.0524588 -0.0152684 0 0 0
0.0529417 0.0465503 -0.0190646 0 0 0
0.0314825 0.0473378 -0.0582432 0 0 0
0.0252129 0.0443129 -0.0602863 0 0 0
0.0250991 0.03931 -0.0867129 0 0 0
0.0240839 0.0471051 -0.0658686 0 0 0
0.0428389 0.0499287 -0.024612 223 109 102
0.0528253 0.0431039 -0.0288819 0 0 0
0.0234022 0.026407 -0.0301899 221 86 80
0.0515767 0.0247731 -0.0427671 0 0 0
0.023575 0.0277061 -0.031311 220 86 80
0.0289632 0.0540372 -0.0232027 203 85 79
0.0225387 0.0252817 -0.0292117 220 86 80
0.0363994 0.0222495 -0.0631091 0 0 0
0.0473569 0.0387108 -0.0172466 199 83 77
0.0239373 0.0283 -0.0610182 0 0 0
0.0490406 0.0189567 -0.0315564 0 0 0
0.0250729 0.0190608 -0.0442128 228 89 83
0.0234177 0.0268551 -0.0307455 220 86 80
0.042008 0.0150428 -0.0387839 0 0 0
0.0464213 0.0165511 -0.0285517 0 0 0
0.0220741 0.0262791 -0.0262237 221 86 80
0.0278078 0.057553 -0.0452449 0 0 0
0.0338282 0.0587837 -0.0365213 0 0 0
0.0455209 0.0494824 -0.0158484 195 91 85
0.0343684 0.0317057 -0.0674642 0 0 0
0.0511974 0.0506192 -0.0187898 0 0 0
0.0341826 0.0317545 -0.0673386 0 0 0
0.0299115 0.054564 -0.0214757 201 86 80
0.0535329 0.044532 -0.0191603 0 0 0
0.0370823 0.0549019 -0.0322842 223 119 112
0.0568514 0.0508394 -0.020949 0 0 0
0.0504602 0.0441646 -0.0238409 0 0 0
0.0570301 0.0353749 -0.0322718 0 0 0
0.0365111 0.0331431 -0.0460101 217 83 77
0.0399632 0.0548701 -0.0194338 223 109 102
0.041451 0.0505738 -0.0254054 223 109 102
0.0486494 0.025252 -0.0754446 0 0 0
0.0481178 0.0192747 -0.0308011 0 0 0
0.0507782 0.0488555 -0.0220523 0 0 0
0.0344494 0.0545774 -0.0306262 220 99 92
0.0363382 0.0561443 -0.0371776 0 0 0
0.0318481 0.0515787 -0.0224671 200 84 78
0.0463063 0.0166399 -0.039912 0 0 0
0.0341468 0.0533166 -0.0325044 220 93 87
0.0290287 0.0402514 -0.0698995 0 0 0
0.0470199 0.017855 -0.0240969 236 111 105
0.0530562 0.0489835 -0.0170159 0 0 0
0.0454434 0.0160733 -0.029719 0 0 0
0.0428674 0.0500449 -0.0193045 207 94 88
0.0492507 0.0201554 -0.0269511 0 0 0
0.0543979 0.0352101 -0.0316504 0 0 0
0.0480404 0.0187456 -0.0306134 0 0 0
0.0462721 0.0503765 -0.0162612 223 101 93
0.0256571 0.0578188 -0.0647316 0 0 0
0.0311796 0.0187872 -0.0731654 0 0 0
0.0263437 0.0234777 -0.0625433 0 0 0
0.0333463 0.0531913 -0.0319374 210 92 86
0.0319996 0.0527445 -0.0242139 199 86 80
0.0237338 0.0262398 -0.0299042 221 86 80
0.0501492 0.0223229 -0.0399659 0 0 0
0.0366115 0.0536547 -0.0320716 223 110 103
0.0405552 0.0511184 -0.0254097 216 103 96
0.0258867 0.0255641 -0.0252048 218 84 78
0.0442896 0.0528916 -0.0403824 0 0 0
0.0390793 0.0539405 -0.0274843 222 118 111
0.0233314 0.0247876 -0.0258616 221 86 80
0.0216103 0.0278997 -0.0337354 222 87 81
0.0463984 0.0179944 -0.0401067 0 0 0
0.0491332 0.0410203 -0.0388426 0 0 0
0.0261501 0.0292723 -0.0369346 220 86 80
0.0438588 0.0547753 -0.0141812 0 0 0
0.0498118 0.0241002 -0.042274 0 0 0
0.0316162 0.0556123 -0.0306742 208 89 83
0.0460644 0.0187274 -0.0416558 0 0 0
0.0430592 0.0092183 -0.0447253 0 0 0
0.0345965 0.0551687 -0.0395206 223 119 112
0.0329769 0.050034 -0.0671796 0 0 0
0.0313379 0.05671 -0.0223089 203 89 83
0.0540457 0.0328322 -0.0245643 0 0 0
0.0463177 0.00201068 -0.0265652 0 0 0
0.0333499 0.0532643 -0.032318 211 92 86
0.0569292 0.0307807 -0.0359949 0 0 0
0.0471186 0.0188645 -0.0314132 0 0 0
0.031572 0.0470592 -0.0446954 220 83 77
0.0554842 0.0338905 -0.0654944 0 0 0
0.0365086 0.0558888 -0.0234452 216 103 96
0.0609502 0.0587688 -0.0135047 0 0 0
0.0366518 0.0508704 -0.076416 0 0 0
0.0221894 0.0609719 -0.0678013 0 0 0
0.0312457 0.0505617 -0.0546692 0 0 0
0.0218516 0.0585454 -0.0504697 0 0 0
0.0250176 0.00807082 -0.0644695 0 0 0
0.0494445 0.0473002 -0.0377098 0 0 0
0.0416146 0.0249333 -0.0526305 0 0 0
0.00679585 -0.0102379 -0.0400531 0 0 0
0.0308386 0.0299715 -0.0601826 0 0 0
0.0523793 0.0489869 -0.019038 0 0 0
0.0376684 0.0559963 -0.0354642 0 0 0
0.0476013 0.0520385 -0.0166676 0 0 0
0.0482502 0.0488039 -0.0199946 0 0 0
0.0245154 0.0284628 -0.0294739 221 86 80
0.0463476 0.026307 -0.0389074 0 0 0
0.0278528 0.0262238 -0.0388647 220 86 80
0.0468278 0.0174872 -0.0299095 0 0 0
0.0355904 0.0533997 -0.033113 210 101 95
0.0459836 0.0512441 -0.0249175 0 0 0
0.0220361 0.0247895 -0.0277833 220 86 80
0.0260405 0.014201 -0.0595794 0 0 0
0.057105 0.0349582 -0.0371352 0 0 0
0.0244257 0.028954 -0.0334656 220 86 80
0.0317733 0.0528433 -0.0572684 0 0 0
0.0408656 0.0597736 -0.0132763 0 0 0
0.0214044 0.0252824 -0.0260503 221 86 80
0.0479337 0.0473832 -0.0191283 222 101 93
0.0503131 0.021637 -0.0402257 0 0 0
0.0470268 0.025206 -0.0421252 0 0 0
0.0232321 0.030916 -0.023839 219 85 79
0.050285 0.0245557 -0.0396995 0 0 0
0.0397523 0.0177536 -0.0378393 225 102 96
0.0533575 0.0227454 -0.0400819 0 0 0
0.0250139 0.0300224 -0.0341091 221 86 80
0.0299095 0.0583307 -0.056403 0 0 0
0.0454414 0.0519076 -0.0175288 0 0 0
0.0395512 0.0563772 -0.0340298 0 0 0
0.0458641 0.0228207 -0.0301438 236 111 105
0.0542747 0.0541213 -0.0643787 0 0 0
0.0277472 0.0287767 -0.0361885 221 86 80
0.0358775 0.0543899 -0.0311518 223 110 103
0.041796 0.0430362 -0.0651795 248 90 83
0.0398525 0.0410924 -0.0129257 201 77 72
0.0470378 0.0543628 -0.0186576 0 0 0
0.0545517 0.0390678 -0.0380919 0 0 0
0.0507071 0.0461844 -0.0649408 0 0 0
0.0519724 0.0420246 -0.0198227 178 81 75
0.0499899 0.0518693 -0.019082 0 0 0
0.0567051 0.0333729 -0.0367517 0 0 0
0.0366929 0.0584377 -0.0168725 223 110 102
0.0318627 0.0458905 -0.0708801 0 0 0
0.0153696 0.0728258 -0.0272416 0 0 0
0.0459436 0.0579865 -0.00850404 0 0 0
0.0473057 0.00628976 -0.0157897 224 108 102
0.0303441 0.0454429 -0.0791652 0 0 0
0.00557163 0.0458466 -0.0622661 0 0 0
0.0142589 -0.0117289 -0.0397968 0 0 0
0.0537588 0.0384386 -0.0656533 0 0 0
0.0325135 0.0341507 -0.0770253 0 0 0
0.0373357 0.0041562 -0.0421385 0 0 0
0.0547513 0.0504721 -0.0182922 0 0 0
0.0381211 0.05715 -0.0345392 0 0 0
0.049639 0.02419 -0.0469659 0 0 0
0.0470628 0.0505485 -0.0239898 0 0 0
0.0380869 0.0532982 -0.034114 223 118 111
0.0410296 0.0536434 -0.0199729 223 109 102
0.0541056 0.0325928 -0.0244764 0 0 0
0.0438658 0.0160382 -0.0412801 0 0 0
0.0245927 0.0286335 -0.0319092 221 86 80
0.0507325 0.0497309 -0.0217572 0 0 0
0.0269781 0.0325318 -0.0377438 221 86 80
0.0348877 0.0392178 -0.063616 237 89 84
0.0334764 0.0535969 -0.0253618 200 88 82
0.026472 0.0280981 -0.0378143 219 85 79
0.0301658 0.0264675 -0.0264487 216 83 77
0.0468633 0.0191233 -0.0451339 0 0 0
0.020098 0.0345194 -0.0320974 224 87 81
0.0251284 0.0268612 -0.0307585 221 86 80
0.0520785 0.022473 -0.038287 0 0 0
0.0295057 0.0502297 -0.053319 0 0 0
0.0517967 0.0514623 -0.0175668 0 0 0
0.0502717 0.0230301 -0.0299681 0 0 0
0.0450966 0.0124418 -0.0485557 0 0 0
0.0245837 0.0330025 -0.0403924 225 88 82
0.0346242 0.0531843 -0.0256586 205 89 83
0.036001 0.0241248 -0.0805106 0 0 0
0.033652 0.0308369 -0.024178 216 83 77
0.0482982 0.0453241 -0.0353684 0 0 0
0.0277215 0.0407252 -0.0306093 217 83 77
0.0340211 0.0545321 -0.0308462 220 93 88
0.00710677 0.0397231 -0.054551 0 0 0
0.0362584 0.0368572 -0.0763387 0 0 0
0.0273593 0.0517311 -0.0435307 230 89 83
0.0432394 0.044614 -0.0801253 0 0 0
0.0406031 0.0489188 -0.046988 0 0 0
0.025985 0.0470967 -0.0599177 0 0 0
0.0388151 0.0217162 -0.0603471 0 0 0
0.0365848 0.0257236 -0.0635659 0 0 0
0.0329521 0.0516896 -0.0237766 198 85 79
0.0340738 0.0551176 -0.0323202 212 102 96
0.0325887 0.0556461 -0.0206061 201 88 82
0.0313982 0.0509612 -0.0250627 203 83 77
0.0184841 0.0151101 0.0155229 217 83 77
0.0242802 0.0493804 -0.0759859 0 0 0
0.0228095 0.0559707 -0.0725513 0 0 0
0.0513213 0.00815623 -0.0763498 0 0 0
0.0355303 0.0400472 -0.0703273 0 0 0
0.0470208 0.0219242 -0.055258 0 0 0
0.0314087 0.0238976 -0.0634973 0 0 0
0.0427849 0.0404069 -0.0761394 0 0 0
0.00824064 0.0701026 -0.0551639 0 0 0
0.0518891 0.0493516 -0.0194581 0 0 0
0.0371328 0.055098 -0.0305817 223 118 112
0.0503636 0.039779 -0.0436806 0 0 0
0.0350355 0.0613365 -0.0374093 0 0 0
0.0509078 0.0195955 -0.040693 0 0 0
0.0330107 0.0556434 -0.0303541 219 94 88
0.0471474 0.0504091 -0.0247141 0 0 0
0.0337399 0.0175473 -0.0602224 0 0 0
0.0313788 0.0552941 -0.0309473 208 91 85
0.0423099 0.0523101 -0.0252005 0 0 0
0.0555446 0.0368195 -0.0410581 0 0 0
0.0431491 0.0622428 -0.0138983 0 0 0
0.0247158 0.0329606 -0.0320781 221 85 79
0.02447 0.0336228 -0.0323084 220 85 79
0.0490976 0.0447296 -0.066299 0 0 0
0.0349189 0.0550922 -0.0219085 211 92 86
0.0267831 0.0288175 -0.0349126 221 86 80
0.0129113 0.0339588 -0.0311852 227 89 83
0.0238169 0.028923 -0.0330791 220 85 79
0.0256517 0.0250174 -0.0294242 221 86 80
0.0462877 0.0188751 -0.0368266 0 0 0
0.0344881 0.053388 -0.0331566 220 92 86
0.0194924 0.0443911 -0.026168 224 86 80
0.048143 0.0212459 -0.0335644 0 0 0
0.046348 0.0172646 -0.0413744 0 0 0
0.0256268 0.0277972 -0.0307154 221 86 80
0.0286552 0.00256129 -0.0532929 0 0 0
0.0396354 0.0507005 -0.0209893 213 93 87
0.0320145 0.0518238 -0.0305445 200 87 81
0.03697 0.0562595 -0.0327343 0 0 0
0.0357237 0.0568962 -0.0355345 0 0 0
0.0273419 0.0274287 -0.0378412 221 86 80
0.0347125 0.0332534 -0.0787779 0 0 0
0.036355 0.0442419 -0.073335 0 0 0
0.0345887 0.0250892 -0.0625873 0 0 0
0.0256335 0.0306742 -0.0338054 221 86 80
0.040875 0.017943 -0.0389913 236 111 105
0.0354938 0.0543794 -0.0328648 224 110 103
0.0219192 0.0133737 -0.0404794 227 91 85
0.057334 0.0471725 -0.0190942 0 0 0
0.0386853 0.0513996 -0.00562545 194 84 79
0.0297532 0.0590941 -0.0618483 0 0 0
0.0374683 0.060816 -0.0639814 0 0 0
0.0297075 0.042068 -0.0765731 0 0 0
0.0294837 0.0380236 -0.0766952 0 0 0
0.0321211 0.0539331 -0.0551823 0 0 0
0.0407847 0.0235779 -0.0539367 0 0 0
0.0170077 0.0392836 -0.0667773 0 0 0
0.0287003 0.0575241 -0.0590541 0 0 0
0.0443388 0.0514895 -0.072267 0 0 0
0.0425593 0.0222971 -0.0805325 0 0 0
0.0251018 0.0449419 -0.036929 225 87 81
0.0352711 0.0548551 -0.0301454 223 110 103
0.0451058 0.0182319 -0.04113 0 0 0
0.0249509 0.0316379 -0.0356475 220 85 79
0.0553101 0.0337324 -0.0431642 0 0 0
0.0124237 0.037508 -0.0486327 230 90 85
0.0268126 0.0299497 -0.0388919 220 85 79
0.030427 0.0551779 -0.0298921 199 87 81
0.0213908 0.0103542 -0.0547158 0 0 0
0.0252281 0.0291189 -0.0341905 221 86 80
0.0463383 0.048492 -0.0187865 223 109 102
0.0294947 0.0274001 -0.0227379 216 83 77
0.0211883 0.0344826 -0.0649246 0 0 0
0.0341724 0.0539669 -0.0259487 209 91 85
0.0229141 0.027535 -0.0334085 219 85 79
0.0469987 0.0409597 -0.0658842 0 0 0
0.0272671 0.029639 -0.0383243 221 86 80
0.045966 0.0234585 -0.0307315 236 111 105
0.0237742 0.0216287 0.0344499 216 83 76
0.0335348 0.0544227 -0.030838 219 94 88
0.04384 0.0509001 -0.0195517 223 109 102
0.0229661 0.0268671 -0.0311471 220 85 79
0.0315915 0.0534487 -0.0233088 199 87 81
0.0416882 0.0531521 -0.0273691 0 0 0
0.0189513 0.00723614 -0.0498098 0 0 0
0.0281932 0.0565046 -0.0700191 0 0 0
0.0335149 0.0515519 -0.0667567 0 0 0
0.0362058 0.051351 -0.00993614 195 84 79
0.0486303 0.0494258 -0.0376402 0 0 0
0.0540544 0.0454691 -0.0237507 0 0 0
0.0563298 0.0460946 -0.019474 0 0 0
0.0582178 0.0471137 -0.0380426 0 0 0
0.0229646 0.0564886 -0.0740371 0 0 0
0.0290355 0.0309218 -0.0443392 219 85 79
0.0285015 0.0474798 -0.0255338 216 82 76
0.0573317 0.0408821 -0.0330142 0 0 0
0.0661866 0.0541433 -0.0423994 0 0 0
0.00826013 0.0265409 -0.0581261 0 0 0
0.0269031 0.0588054 -0.0680383 0 0 0
0.0391957 0.0515605 -0.0790047 0 0 0
0.0378129 0.0554471 -0.0342142 0 0 0
0.0506815 0.0375058 -0.0135438 213 91 85
0.0532583 0.0241014 -0.0427935 0 0 0
0.0324073 0.0259104 -0.0431293 219 85 79
0.0548772 0.0329847 -0.046186 0 0 0
0.0248184 0.0295184 -0.0349973 220 85 79
0.0270706 0.027903 -0.0374725 221 86 80
0.023622 0.0278602 -0.0308721 221 86 80
0.0184469 0.0232773 -0.0451168 228 90 84
0.0480541 0.0188125 -0.0337688 0 0 0
0.0467638 0.0186476 -0.0365585 0 0 0
0.0460931 0.0211812 -0.033686 0 0 0
0.0500673 0.0180993 -0.0396162 0 0 0
0.0233122 0.0280335 -0.0290487 221 86 80
0.0351359 0.054785 -0.0319354 224 110 103
0.0365559 0.0517342 -0.0246665 206 90 84
0.0315073 0.0522592 -0.0259476 201 86 80
0.0381175 0.0573699 -0.0343356 0 0 0
0.0270732 0.0325109 -0.03925 220 86 79
0.0355436 0.0554276 -0.0363961 224 119 112
0.0235097 0.0256587 -0.0304348 221 86 80
0.0411803 0.0153549 -0.0458258 0 0 0
0.0466858 0.0214137 -0.0415155 0 0 0
0.0260823 0.0430763 -0.0386612 224 86 80
0.049928 0.0380833 -0.0401425 0 0 0
0.0458775 0.0461739 -0.076117 0 0 0
0.0358611 0.0429099 -0.049097 219 83 77
0.0352435 0.0541555 -0.0251318 215 93 87
0.0379443 0.0572634 -0.0421232 0 0 0
0.024145 0.0114729 -0.0533619 0 0 0
0.0231582 0.0121084 -0.051453 0 0 0
0.0460838 0.0198899 -0.0410663 0 0 0
0.0475496 0.0139158 -0.0557788 0 0 0
0.0276065 0.033239 -0.0382861 221 86 80
0.0390521 0.0570163 -0.0423352 0 0 0
0.033354 0.0541307 -0.0260559 204 90 84
0.0354529 0.0575867 -0.0375862 0 0 0
0.0382128 0.0549131 -0.0344257 0 0 0
0.0371944 0.0355447 -0.0656567 0 0 0
0.0615372 0.0480998 -0.0148843 0 0 0
0.0334058 0.0572821 -0.0312894 224 111 103
0.028198 0.0299456 -0.0381899 221 86 80
0.0513043 0.0318001 -0.0462093 0 0 0
0.0513402 0.0358887 -0.0142954 213 94 87
0.0505612 0.0236928 -0.0397205 0 0 0
0.0370557 0.0564161 -0.035721 0 0 0
0.0438988 0.0241429 -0.054221 0 0 0
0.0546746 0.0313562 -0.0442685 0 0 0
0.0238597 0.0193835 -0.0586175 0 0 0
0.0258725 0.0290715 -0.0364971 220 86 79
0.0232356 0.0303184 -0.0320728 220 85 79
0.0522841 0.0437242 -0.0240047 0 0 0
0.0237396 0.0285247 -0.0305494 221 86 80
0.0242365 0.0289339 -0.0326505 221 86 80
0.0266032 0.0334311 -0.0365921 221 86 79
0.0463634 0.0186271 -0.0374337 0 0 0
0.0488102 0.0209313 -0.0417917 0 0 0
0.0216049 0.0276704 -0.0263615 221 86 80
0.05025 0.0249193 -0.0423136 0 0 0
0.048372 0.022331 -0.0232467 225 102 96
0.0217159 0.0258737 -0.0268521 221 86 80
0.052275 0.042347 -0.0300851 0 0 0
0.0361873 0.0296104 -0.0693017 0 0 0
0.0502333 0.0226512 -0.0323624 0 0 0
0.0328894 0.0547425 -0.0316935 218 92 86
0.0366885 0.0501618 -0.0240608 198 86 80
0.0313824 0.0648741 -0.0489603 0 0 0
0.0493129 0.0400576 -0.0379212 0 0 0
0.0106888 0.051936 -0.0508857 0 0 0
0.036094 0.0309444 -0.0669021 0 0 0
0.0243515 0.0288108 -0.0330844 220 86 80
0.0535706 0.0465765 -0.0321742 0 0 0
0.0328058 0.0545198 -0.031237 217 92 86
0.0330436 0.0539619 -0.0305996 210 92 86
0.04697 0.0192004 -0.0399094 0 0 0
0.0373228 0.0546017 -0.0330929 223 119 112
0.0371211 0.0559876 -0.03456 0 0 0
0.035427 0.0538875 -0.0237908 209 91 85
0.0485722 0.0201073 -0.0317369 0 0 0
0.0301769 0.0491403 -0.0259195 216 80 74
0.0175744 0.0615688 -0.046006 0 0 0
0.0151306 0.0466359 -0.0709141 0 0 0
0.0331102 0.0500645 -0.0420416 206 89 83
0.0468664 0.0491561 -0.0407259 0 0 0
0.0384923 0.00697175 -0.0491243 0 0 0
0.0176508 0.0192656 -0.0544364 0 0 0
0.0321928 0.0258597 -0.064011 0 0 0
0.0498805 0.019073 -0.0409387 0 0 0
0.0390102 0.0542608 -0.0349452 0 0 0
0.0232678 0.038097 -0.0342386 222 86 80
0.0352847 0.0128745 -0.0428084 227 107 100
0.025055 0.0322731 -0.0356851 220 85 79
0.0498668 0.0487677 -0.0770768 0 0 0
0.0325313 0.0381341 -0.0508095 219 85 79
0.0333166 0.0545783 -0.0299058 217 92 86
0.0554453 0.0142893 -0.053616 0 0 0
0.0351381 0.0314958 -0.0681417 0 0 0
0.0290284 0.0372187 -0.02474 216 83 76
0.0448124 0.0773512 -0.0123203 0 0 0
0.0233281 0.0259421 0.0224796 216 83 76
0.0577209 0.0239196 -0.0127526 0 0 0
0.037888 0.0438278 -0.0535333 232 87 80
0.0577389 0.028717 -0.0178464 0 0 0
0.0548914 0.0332449 -0.036284 0 0 0
0.0331661 0.0540769 -0.0571802 0 0 0
0.0307531 0.0540115 -0.0537436 0 0 0
0.0247821 0.0540783 -0.0628154 0 0 0
0.0264379 0.0612428 -0.0591747 0 0 0
0.0223861 0.0447823 -0.0623587 0 0 0
0.0255624 0.0198547 -0.077824 0 0 0
0.05493 0.0506771 -0.0430999 0 0 0
0.0247485 0.0462055 -0.0609128 0 0 0
0.0390569 0.0522884 -0.0467891 0 0 0
0.0198735 0.0579142 -0.0553214 0 0 0
0.0372833 0.0531571 -0.0677431 0 0 0
0.0437766 0.0472045 -0.037538 0 0 0
0.0418114 0.0560006 -0.0428668 0 0 0
0.0258877 0.0552213 -0.0566001 0 0 0
0.0417669 0.0520524 -0.0334038 0 0 0
0.024805 0.0526612 -0.0567307 0 0 0
0.0188848 0.0382066 -0.0633546 0 0 0
0.0455985 0.0268427 -0.0734928 0 0 0
0.0287884 0.0540899 -0.0569298 0 0 0
0.0287301 0.0632577 -0.0598289 0 0 0
0.0282418 0.0483173 -0.0551329 0 0 0
0.0356147 0.0506225 -0.0679698 0 0 0
0.024467 0.0582455 -0.0615073 0 0 0
0.0277768 0.0542349 -0.059683 0 0 0
0.0307379 0.0515733 -0.0522491 0 0 0
0.0236589 0.042449 -0.0608544 0 0 0
0.0308212 0.0328954 -0.0731359 0 0 0
0.0414043 0.0399308 -0.0610738 232 89 82
0.0179168 0.0491658 -0.057232 0 0 0
0.0408962 0.0410704 -0.0706242 0 0 0
0.025755 0.0374842 -0.0731754 0 0 0
0.0428459 0.0467679 -0.060334 0 0 0
0.0324183 0.0526211 -0.0524882 0 0 0
0.0255115 0.0476384 -0.0604524 0 0 0
0.0274859 0.0490832 -0.0540649 0 0 0
0.0428199 0.0429822 -0.0603164 255 100 93
0.0368886 0.0515213 -0.0633633 0 0 0
0.031289 0.0253338 -0.0611167 0 0 0
0.0384906 0.0538701 -0.0380352 0 0 0
0.0285717 0.0508507 -0.0561085 0 0 0
0.0415475 0.0604071 -0.0483189 0 0 0
0.0208732 0.0340658 -0.0611187 0 0 0
0.0327279 0.0553159 -0.0391832 224 119 113
0.0325457 0.0419585 -0.0680984 0 0 0
0.0309225 0.0558535 -0.047573 0 0 0
0.00788284 0.0321904 -0.0621331 0 0 0
0.01686 0.0318602 -0.0709662 0 0 0
0.0183395 0.0448799 -0.0526433 0 0 0
0.024888 0.0513707 -0.0578154 0 0 0
0.036549 0.0534937 -0.0359376 224 119 112
0.0220777 0.0570476 -0.0411081 0 0 0
0.0501227 0.0442914 -0.0562429 0 0 0
0.0571012 0.0479051 -0.0301877 0 0 0
0.0360085 0.055167 -0.03746 0 0 0
0.0487874 0.0402432 -0.076765 0 0 0
0.0458977 0.0297126 -0.0712983 0 0 0
0.0436684 0.0130829 -0.0379103 0 0 0
0.017096 0.0530235 -0.0503977 0 0 0
0.054913 0.0230091 -0.0776102 0 0 0
0.0246386 0.068803 -0.0595738 0 0 0
0.0431338 0.0425421 -0.0739875 0 0 0
0.0445595 0.0352014 -0.0734774 0 0 0
0.0450591 0.0481275 -0.0729837 0 0 0
0.00940992 0.0360253 -0.0720578 0 0 0
0.033518 0.037967 -0.0756285 0 0 0
0.0364567 0.0531689 -0.0319801 223 110 103
0.052048 0.0375526 -0.0635245 0 0 0
0.0360495 0.0540754 -0.0323456 223 110 103
0.0331028 0.0474429 -0.0778727 0 0 0
0.0468093 0.0522131 -0.0315903 0 0 0
0.0553259 0.0304648 -0.0166695 0 0 0
0.0464811 0.0583786 -0.0324139 0 0 0
0.0179854 0.0262147 -0.0807485 0 0 0
0.0236573 0.0303184 -0.0663934 0 0 0
0.0491796 0.023661 -0.0743743 0 0 0
0.0573673 0.0310006 -0.0148323 0 0 0
0.0527228 0.0576139 -0.0360568 0 0 0
0.0446752 0.0600983 -0.03459 0 0 0
0.0132535 0.0498856 -0.0433797 210 97 90
0.0516862 0.0237719 -0.0420766 0 0 0
0.0405643 0.0611603 -0.0758908 0 0 0
0.025654 0.0640093 -0.0385378 0 0 0
0.0640236 0.0446161 -0.0042945 0 0 0
0.014284 0.0186502 -0.0566593 0 0 0
0.0377626 0.053848 -0.0312926 223 118 111
0.0342866 0.056262 -0.0346077 224 119 112
-0.00777517 0.0583515 -0.0186877 217 106 99
0.045213 0.00707816 -0.02039 224 108 102
0.0297565 0.0326472 -0.0628671 0 0 0
0.0392788 0.0552527 -0.0676403 0 0 0
0.0467623 0.0585896 -0.0347785 0 0 0
0.0426792 0.0683548 -0.0353244 0 0 0
0.011872 0.0168987 -0.0663381 0 0 0
0.0276567 0.0185973 -0.0681013 0 0 0
0.040218 0.0342163 -0.0791442 0 0 0
0.041129 0.0542005 -0.0285396 0 0 0
0.0146786 0.0668128 -0.0288587 0 0 0
0.0195786 0.0201208 -0.0720484 0 0 0
0.0191202 0.0249493 -0.0764313 0 0 0
0.0342185 0.0660992 -0.0285091 0 0 0
0.0630446 0.0504896 -0.0476519 0 0 0
0.0479562 0.0452448 -0.0584584 0 0 0
0.0479753 0.0416545 -0.0784793 0 0 0
0.0352398 0.057355 -0.0751479 0 0 0
0.0538819 0.042034 -0.073439 0 0 0
0.0582046 0.021424 -0.02352 0 0 0
0.0362771 0.0411561 -0.0649987 243 87 82
0.0214517 0.0381146 -0.0862525 0 0 0
0.0109237 0.06065 -0.0572149 0 0 0
0.057199 0.0201275 -0.013986 0 0 0
0.0222338 0.0448502 -0.0800872 0 0 0
0.0324878 0.0329825 -0.0802788 0 0 0
0.0225347 0.0474387 -0.0826004 0 0 0
0.0422246 0.0587659 -0.032388 0 0 0
0.0243132 0.0453048 -0.0840254 0 0 0
0.0102696 0.0480003 -0.0529492 0 0 0
0.0518109 0.0118226 -0.0211416 0 0 0
0.0396983 0.0543806 -0.0190717 221 108 100
0.0123417 0.0441369 -0.0649184 0 0 0
0.0359256 0.0548268 -0.0642807 0 0 0
0.050328 0.0454902 -0.0801134 0 0 0
0.0129573 0.0555964 -0.0500059 0 0 0
0.0578802 0.0137413 -0.026198 0 0 0
0.0455394 0.010963 -0.0270478 0 0 0
0.0484557 0.0261818 -0.0714519 0 0 0
0.0267907 0.0577658 -0.0618086 0 0 0
0.0194087 0.0255317 -0.0631588 0 0 0
0.0147574 0.0299864 -0.0701336 0 0 0
0.0435419 0.0396585 -0.0812245 0 0 0
0.0326308 0.0659344 -0.0382169 0 0 0
-0.00049201 0.03618 -0.065627 0 0 0
0.0205882 0.0264365 -0.0616945 0 0 0
0.0455122 0.0442248 -0.0780788 0 0 0
0.036182 0.0430173 -0.0759647 0 0 0
0.0458994 0.0454879 -0.0710071 0 0 0
0.0362418 0.0459815 -0.0656364 0 0 0
0.0228359 0.0362583 -0.0800219 0 0 0
0.0400468 0.0465999 -0.0643094 255 99 92
0.0260723 0.0376187 -0.0795323 0 0 0
0.0477201 0.0526633 -0.0787733 0 0 0
0.0353514 0.0374899 -0.0728374 0 0 0
0.0312458 0.0507819 -0.0732559 0 0 0
0.0311869 0.0229114 -0.0642001 0 0 0
0.0149914 0.045839 -0.0496293 0 0 0
0.0615614 0.0423293 -0.023191 0 0 0
0.0344636 0.0260936 -0.087317 0 0 0
0.0185689 0.0558085 -0.0617238 0 0 0
0.043662 0.05052 -0.0811097 0 0 0
0.0519751 0.0497859 -0.0440345 0 0 0
0.0447095 0.0563714 -0.074033 0 0 0
0.0089818 -0.0131872 -0.0465501 0 0 0
0.0434841 0.044806 -0.0773823 0 0 0
0.0447856 0.0412055 -0.0824345 0 0 0
0.0448638 0.0258661 -0.0670308 0 0 0
0.0543312 0.0654611 -0.0375144 0 0 0
0.0513856 0.0271852 -0.0311613 0 0 0
0.0407809 0.0226514 -0.0706071 0 0 0
0.0520781 0.00971568 -0.00366014 226 102 96
0.0352437 0.0324756 -0.0781544 0 0 0
0.053148 0.0223367 -0.0363809 0 0 0
0.0468615 -0.0057343 -0.022964 0 0 0
-0.00165703 0.0716781 -0.0521391 0 0 0
0.0209687 0.00504386 -0.0731442 0 0 0
0.052019 0.0338288 -0.0805032 0 0 0
0.0517188 0.047627 -0.0285284 0 0 0
0.00479432 0.0602063 -0.0257011 211 97 90
0.0637462 0.0473507 -0.0308677 0 0 0
0.0191606 0.0184311 -0.0567587 0 0 0
0.030478 0.0613978 -0.0630368 0 0 0
0.0627639 0.043469 -0.039304 0 0 0
0.0301265 0.0470118 -0.0210879 215 81 75
0.0207536 0.0209906 -0.0675161 0 0 0
0.0453105 0.0485307 -0.0719333 0 0 0
0.052221 0.0205189 -0.0290886 0 0 0
0.0146444 0.0311794 -0.0679476 0 0 0
0.0400237 0.02259 -0.0711632 0 0 0
0.0443894 0.0660212 -0.0399179 0 0 0
0.0480533 0.0163002 -0.0200747 225 102 96
0.0350256 0.0421799 -0.0791266 0 0 0
0.0401447 0.0353512 -0.0788398 0 0 0
0.0159494 0.0278346 -0.0594614 0 0 0
0.0250213 -0.00793685 -0.0596698 0 0 0
0.0495625 0.0406852 -0.0687658 0 0 0
0.0458723 0.0123296 -0.0329232 0 0 0
0.0582009 0.0328357 -0.0773272 0 0 0
0.0371378 0.0452533 -0.0739621 0 0 0
0.0580669 0.0176991 -0.01501 0 0 0
0.0401184 0.053653 -0.081575 0 0 0
0.0241426 0.0542217 -0.0654557 0 0 0
0.0301523 0.0447565 -0.0752434 0 0 0
0.0310131 0.0629682 -0.025291 225 111 104
0.0543503 0.0225315 -0.0200811 0 0 0
0.0481618 0.0458179 -0.0272209 0 0 0
0.0532598 0.0217698 -0.0212857 0 0 0
0.0259346 0.0220619 -0.0744985 0 0 0
0.0429318 0.0502162 -0.0759908 0 0 0
0.0317327 0.0158249 -0.0751122 0 0 0
0.0511329 0.0213814 -0.0383135 0 0 0
0.0144905 0.0390803 -0.0641443 0 0 0
0.0277471 0.0560789 -0.082127 0 0 0
0.0580523 0.0378116 -0.0165971 0 0 0
0.0246809 0.0913392 -0.032929 0 0 0
0.0288258 0.0467241 -0.0809128 0 0 0
0.0452736 0.0485664 -0.0747115 0 0 0
0.0524297 0.0537586 -0.0709255 0 0 0
0.0253701 0.0272297 -0.0651197 0 0 0
0.0220424 0.0272683 -0.0659262 0 0 0
0.0483446 0.0452336 -0.0270137 0 0 0
0.0459378 0.0233631 -0.0796518 0 0 0
0.00964921 0.0352871 -0.0487783 229 91 85
0.0307802 0.0657182 -0.00394949 207 94 88
0.0416257 0.0200384 -0.0508672 0 0 0
0.0653106 0.0467281 -0.0328726 0 0 0
0.0355262 0.051161 -0.0802633 0 0 0
0.0505092 0.0247108 -0.0250675 0 0 0
0.0465158 0.00412322 -0.047348 0 0 0
0.0319613 0.0150209 -0.0787735 0 0 0
0.0519502 0.0358202 -0.0257471 196 93 87
0.0165289 0.0737756 -0.0250259 0 0 0
0.00923132 0.0631324 -0.0444897 0 0 0
0.0102124 0.030443 -0.0570841 0 0 0
0.0479602 0.046441 -0.0261996 0 0 0
0.041579 0.015018 -0.0312638 226 103 97
0.0400853 0.0233329 -0.0592924 0 0 0
0.0427622 0.0402784 -0.0799985 0 0 0
0.0417884 0.0360109 -0.0732091 0 0 0
0.0528384 0.0256939 -0.0244787 0 0 0
0.032972 0.0357067 -0.0778003 0 0 0
0.025114 0.00918838 -0.0502395 0 0 0
0.0194005 0.0316272 -0.0850327 0 0 0
0.0393939 0.0403525 -0.0655883 234 90 84
0.0239694 0.0178978 -0.0544638 0 0 0
0.0432579 0.0169327 -0.0564134 0 0 0
0.0560381 0.0373227 -0.0307545 0 0 0
0.0490791 0.0205323 -0.0410725 0 0 0
0.0340582 0.0398499 -0.0783967 0 0 0
0.0404191 0.0359135 -0.0766365 0 0 0
0.0279715 0.0265913 -0.0598301 0 0 0
0.0713818 0.0277307 0.0186876 0 0 0
0.02001 0.0649929 -0.0342697 0 0 0
0.0344847 0.032483 -0.0810462 0 0 0
0.0189413 0.0545268 -0.0408006 212 97 89
0.014752 0.0297814 -0.0677015 0 0 0
0.0475082 0.0125611 -0.0677346 0 0 0
0.0151464 0.0634435 -0.0341646 0 0 0
0.0513388 0.0517535 -0.0440924 0 0 0
0.0422364 0.0163161 -0.0452495 0 0 0
0.0380504 0.0556932 -0.0687225 0 0 0
0.0382748 0.0224577 -0.0526389 211 99 92
0.051973 0.0389445 -0.029775 176 96 91
0.0386986 0.0235186 -0.0568957 0 0 0
0.0393037 0.0487506 -0.0784204 0 0 0
0.0536261 0.0284011 -0.0298552 0 0 0
0.0498401 0.0335057 -0.0295411 0 0 0
0.0462205 0.0203515 -0.0430534 0 0 0
0.0271378 0.0374559 -0.077403 0 0 0
0.02255 0.00896887 -0.0589086 0 0 0
0.0552478 0.0323488 -0.0310102 0 0 0
0.041538 0.0230667 -0.0583768 0 0 0
0.0540169 0.0295783 -0.0317635 0 0 0
0.0361028 0.0353083 -0.0742462 0 0 0
0.0513967 0.0317701 -0.029013 0 0 0
0.0455598 0.0169338 -0.0601423 0 0 0
0.0301685 0.039862 -0.0836587 0 0 0
0.0358048 0.0494082 -0.051216 226 122 115
0.0289851 0.0485773 -0.0547325 0 0 0
0.00926373 0.0501712 -0.062478 0 0 0
0.0363514 0.05871 -0.0519513 0 0 0
0.0208207 0.051927 -0.0544121 0 0 0
0.0293966 0.0545939 -0.049297 0 0 0
0.0344021 0.0540294 -0.0429843 225 120 113
0.0257106 0.0695052 -0.0573069 0 0 0
0.0274405 0.0274369 -0.0644496 0 0 0
0.00297899 0.062327 -0.0570793 0 0 0
0.0493075 0.0474245 -0.0278503 0 0 0
0.0539273 0.0598843 -0.0397815 0 0 0
0.0577748 0.0487181 -0.0246799 0 0 0
0.0208044 0.0621771 -0.0365061 0 0 0
0.0283612 0.0685026 -0.0405119 0 0 0
0.0386547 0.0731837 -0.0458949 0 0 0
0.0382103 0.0449797 -0.0801065 0 0 0
0.0372084 0.0392841 -0.0768884 0 0 0
0.0408355 0.0542186 -0.0318187 0 0 0
0.0367603 0.0555976 -0.0334719 0 0 0
0.0369122 0.0592835 -0.0365562 0 0 0
0.0368576 0.0454879 -0.0797829 0 0 0
0.00434196 0.0133321 -0.0485405 213 98 90
0.0409781 0.055262 -0.0328624 0 0 0
0.0289974 0.0461208 -0.0818617 0 0 0
0.0195222 0.0141277 -0.0643093 0 0 0
0.0451182 0.0502386 -0.0311196 0 0 0
0.039831 0.0589903 -0.0747594 0 0 0
0.0486031 0.0519066 -0.07328 0 0 0
0.00719079 0.0588153 -0.0604795 0 0 0
0.0343098 0.0489859 -0.0770011 0 0 0
0.0383521 0.0365741 -0.0841014 0 0 0
0.0401846 0.0539228 -0.0787977 0 0 0
0.0360039 0.0385237 -0.0800555 0 0 0
0.0105355 0.0580887 -0.0647826 0 0 0
0.0169734 0.0251188 -0.0742228 0 0 0
0.0532708 0.0578034 -0.074016 0 0 0
0.0173941 0.0380599 -0.0700759 0 0 0
0.0347204 -0.000159429 -0.0591699 0 0 0
0.0473382 0.0327695 -0.076403 0 0 0
0.0397356 0.0433949 -0.0628577 239 86 79
0.033651 0.0413148 -0.0786546 0 0 0
0.0182958 0.035818 -0.0690835 0 0 0
0.0381484 0.01146 -0.0455115 0 0 0
0.026877 0.0392496 -0.0775115 0 0 0
0.046976 0.0510073 -0.0161946 0 0 0
0.041127 0.0569178 -0.0272441 0 0 0
0.0221779 0.0241706 -0.066583 0 0 0
0.0388163 0.0191102 -0.0553467 0 0 0
0.0236571 0.0331909 -0.0627811 0 0 0
0.0371115 0.0514044 -0.0658459 0 0 0
0.0551972 0.0357286 -0.0202571 0 0 0
0.0112579 0.0478497 -0.0623138 0 0 0
0.0336436 0.023237 -0.0699161 0 0 0
0.0423375 0.0413111 -0.0838835 0 0 0
0.0478384 0.0339873 -0.0771575 0 0 0
0.0373473 0.0102033 -0.0546751 0 0 0
0.00562788 0.0512051 -0.050153 0 0 0
0.0162746 0.0201771 -0.0674197 0 0 0
0.020227 0.0288158 -0.0651376 0 0 0
0.0424695 0.0486728 -0.0753426 0 0 0
0.0566066 0.0519647 -0.00607517 0 0 0
0.0358878 0.0408421 -0.0816681 0 0 0
0.0451574 0.0178136 -0.049892 0 0 0
0.0392999 0.0326089 -0.0829972 0 0 0
0.0396447 0.0297148 -0.0740193 0 0 0
0.0103903 0.0195556 -0.0631193 0 0 0
0.00692338 0.0369013 -0.0626744 0 0 0
0.00838936 0.0465718 -0.0610032 0 0 0
0.0376733 0.0142103 -0.0718853 0 0 0
0.0386751 0.0209739 -0.0544465 0 0 0
0.0532849 0.0346277 -0.0301186 0 0 0
0.0385229 0.0195829 -0.0558868 0 0 0
0.0385813 0.0140709 -0.0660737 0 0 0
0.0511917 0.0389735 -0.0319092 176 96 91
0.0475018 0.0349041 -0.0533146 0 0 0
0.052288 0.038032 -0.0437485 0 0 0
0.0468987 0.0312207 -0.0574577 0 0 0
0.0556361 0.0445401 -0.0282404 0 0 0
0.0515153 0.0239601 -0.0383189 0 0 0
0.0278634 0.0314583 -0.0380562 221 86 80
0.0483525 0.0515598 -0.0206085 0 0 0
0.0156948 0.0339543 -0.0694054 0 0 0
0.0259166 0.0200569 -0.0207917 217 84 78
0.0316949 0.057489 -0.0263609 217 93 87
0.049318 0.0240316 -0.0271441 0 0 0
0.0495546 0.0404545 -0.0393783 0 0 0
0.0195084 0.0331466 -0.0423908 227 89 83
0.054088 0.0322608 -0.0420387 0 0 0
0.0237032 0.0266681 -0.033466 219 85 79
0.0327136 0.0301323 -0.0304989 216 83 77
0.0580121 0.0432605 -0.037271 0 0 0
0.0513989 0.0483892 -0.0225429 0 0 0
0.0354575 0.0534282 -0.0303913 221 94 88
0.0568077 0.0437165 -0.0299106 0 0 0
0.0256601 0.0246139 -0.0281724 220 86 80
0.0400113 0.0183439 -0.0386609 225 102 96
0.0564367 0.0434835 -0.0350806 0 0 0
0.0558758 0.028925 -0.0410407 0 0 0
0.0363164 0.025647 -0.0672359 0 0 0
0.028211 0.0343872 -0.0323947 217 83 77
0.0259564 0.030168 -0.0328607 221 86 80
0.0440206 0.0169959 -0.0305943 236 111 105
0.049249 0.0182144 -0.0307837 0 0 0
0.0482394 0.0215203 -0.0453582 0 0 0
0.0224992 0.0249859 -0.0278625 221 86 80
0.0548894 0.0477874 -0.0349626 0 0 0
0.0304918 0.0279577 -0.0654467 0 0 0
0.0303987 0.031476 -0.0302151 216 83 77
0.0256225 0.0281631 -0.0355167 220 86 80
0.0446203 0.0141654 -0.0277325 224 108 102
0.0268332 0.0180359 -0.0361035 223 86 80
0.0280865 0.0334551 -0.0718428 0 0 0
0.0296709 0.0250701 -0.0801791 0 0 0
0.047278 0.023131 -0.0284185 236 111 105
0.0284952 0.0578663 -0.0284463 203 89 83
0.0341771 0.0521731 -0.0634576 0 0 0
0.031107 0.0582219 -0.0428208 222 119 112
0.0355212 0.0543528 -0.0306878 214 113 106
0.0371306 0.0575303 -0.0225236 223 110 103
0.0493239 0.0416644 -0.0387821 0 0 0
0.0246769 0.0295244 -0.0332359 221 86 80
0.0265456 0.0610774 -0.0706944 0 0 0
0.0458472 0.050983 -0.021606 0 0 0
0.0363011 0.0556352 -0.0354886 0 0 0
0.0423738 0.0540608 -0.0192193 0 0 0
0.0273863 0.0372897 -0.0337595 219 84 78
0.0518194 0.052489 -0.0511332 0 0 0
0.0356189 0.0281096 -0.061973 0 0 0
0.0259881 0.0384184 -0.028858 219 84 78
0.0211852 0.0386007 -0.0370985 227 89 82
0.0488748 0.0496131 -0.0640748 0 0 0
0.0250256 0.025768 -0.0392651 223 87 81
0.0470634 0.0181556 -0.0396983 0 0 0
0.0249256 0.0463192 -0.060907 0 0 0
0.0353798 0.0541333 -0.0270877 217 92 86
0.0487007 0.0366893 -0.0383538 0 0 0
0.0214626 0.0367545 -0.0827569 0 0 0
0.0250253 0.0296195 -0.035179 220 86 79
0.0227657 0.0474924 -0.0643981 0 0 0
0.0332887 0.056237 -0.0583466 0 0 0
0.0323489 0.0549958 -0.0298075 210 91 85
0.0156616 0.0194064 -0.0459124 236 89 83
0.0594236 0.0339861 -0.0295337 0 0 0
0.0182884 0.0217385 -0.0306686 224 88 82
0.0362138 0.0558478 -0.0313542 223 119 112
0.0472836 0.013501 -0.0575077 0 0 0
0.0571926 0.058297 -0.0677068 0 0 0
0.0278615 0.067148 -0.0680234 0 0 0
0.0272138 0.0331418 -0.0647078 0 0 0
0.0313581 0.0449023 -0.0645232 0 0 0
0.0290979 0.043089 -0.0288155 216 82 76
0.0368724 0.0540968 -0.0240675 214 94 88
0.0320219 0.0444762 -0.0694311 0 0 0
0.042196 0.017649 -0.0488183 0 0 0
0.0273735 0.0297313 -0.040187 219 85 79
0.0311848 0.0266419 -0.0287143 216 83 77
0.0481028 0.0205119 -0.0354899 0 0 0
0.0348227 0.0507679 -0.024063 196 85 79
0.0287613 0.0318102 -0.0403889 221 86 80
0.027575 0.0280811 -0.030039 217 84 78
0.033302 0.0543222 -0.027528 209 91 85
0.0198719 0.0260498 -0.0287295 220 86 80
0.0210815 0.0427471 -0.0228855 219 84 78
0.0335017 0.053805 -0.0307532 214 92 86
0.0278776 0.0288076 -0.0364321 221 86 80
0.050217 0.0477785 -0.0698813 0 0 0
0.0298501 0.0393335 -0.0676189 0 0 0
0.0275868 0.0315526 -0.0398421 221 86 80
0.0514195 0.0202318 -0.0592631 0 0 0
0.0420661 0.0503543 -0.0416013 0 0 0
0.0260782 0.0287431 -0.0356757 221 86 80
0.0312608 0.0290877 -0.066977 0 0 0
0.0340094 0.054111 -0.0230747 203 89 83
0.033674 0.0292621 -0.070008 0 0 0
0.0359512 0.0383649 -0.0497979 216 83 77
0.0451989 0.0491172 -0.0247952 0 0 0
0.034305 0.0586268 -0.039766 0 0 0
0.0229688 0.0460342 -0.0309977 223 86 80
0.0196139 0.0458811 -0.0555293 0 0 0
0.0383698 0.056546 -0.0446241 0 0 0
0.0351401 0.0314929 -0.0680361 0 0 0
0.0297302 0.0459845 -0.0290063 216 82 76
0.0530798 0.0375699 -0.0434771 0 0 0
0.028969 0.0433598 -0.0739175 0 0 0
0.0270328 0.0502768 -0.0547851 0 0 0
0.0210831 0.0476588 -0.0709058 0 0 0
0.0298167 0.0540761 -0.0696121 0 0 0
0.027682 0.0247412 -0.0671757 0 0 0
0.0329038 0.0455951 -0.067595 0 0 0
0.0311024 0.0588794 -0.0723495 0 0 0
0.0297696 0.0319842 -0.0832556 0 0 0
0.033154 0.0448923 -0.0668892 0 0 0
0.0375736 0.0454663 -0.062899 255 92 86
0.0230092 0.0321535 -0.0689782 0 0 0
0.0412293 0.0350304 -0.0639814 0 0 0
0.0462472 0.0173012 -0.0317879 0 0 0
0.0245546 0.0279915 -0.0668847 0 0 0
0.0759783 0.0613327 -0.00528842 0 0 0
0.0342502 0.0286083 -0.082171 0 0 0
0.0447421 0.0530227 -0.017371 0 0 0
0.0357028 0.059273 -0.0251427 223 119 112
0.0555626 0.0490932 -0.0204236 0 0 0
0.0667727 0.0455553 -0.0176309 0 0 0
0.0226816 0.0243649 -0.0613446 0 0 0
0.027883 0.0570977 -0.0574013 0 0 0
0.0345568 0.0568613 -0.0203235 217 93 87
0.0373832 0.0329457 -0.0679257 0 0 0
0.0372094 0.031605 -0.0686272 0 0 0
0.0337307 0.044205 -0.0633249 255 96 90
0.0232867 0.0290623 -0.0329723 219 85 79
0.0337183 0.0402856 -0.0475329 215 82 76
0.0335721 0.0446566 -0.0642988 0 0 0
0.0280639 0.0551736 -0.0634893 0 0 0
0.0226986 0.0602203 -0.054758 0 0 0
0.0211889 0.0230468 -0.025025 221 86 80
0.0590755 0.0648721 -0.0119983 0 0 0
0.0259862 0.0360059 -0.0321053 220 85 79
0.0342707 0.0303721 -0.0724148 0 0 0
0.0241001 0.0227927 -0.0210486 219 85 79
0.0206612 0.0322057 -0.0669567 0 0 0
0.0569952 0.0486345 -0.0110066 0 0 0
0.0317158 0.0379975 -0.0814411 0 0 0
0.0126142 0.0109553 -0.0519317 0 0 0
0.0341563 0.0525658 -0.0216643 197 86 80
0.0398484 0.0545974 -0.0218427 223 109 102
0.0568595 0.0418469 -0.0160543 209 88 80
0.0346703 0.0130076 -0.0449866 223 107 101
0.0427639 0.0515208 -0.047062 0 0 0
0.0335855 0.0559476 -0.0179 202 88 82
0.0335775 0.025751 -0.0660449 0 0 0
0.0320365 0.037393 -0.0667128 0 0 0
0.0317767 0.0536097 -0.0616463 0 0 0
0.0139314 0.0357491 -0.0449968 230 90 83
0.0397201 0.0371293 -0.046017 219 83 77
0.0338404 0.0508811 -0.0663964 0 0 0
0.0225777 0.0342442 -0.0376471 225 88 82
0.0225318 0.0611707 -0.0612882 0 0 0
0.0322326 0.0285777 -0.020818 216 83 77
0.0524056 0.0729077 -0.0150785 0 0 0
0.0260542 0.0310444 -0.0335834 221 86 80
